<svg width="166" height="166" viewBox="0 0 166 166" fill="none" xmlns="http://www.w3.org/2000/svg">
<path d="M83 166C93.8997 166 104.693 163.853 114.763 159.682C124.833 155.511 133.983 149.397 141.69 141.69C149.397 133.983 155.511 124.833 159.682 114.763C163.853 104.693 166 93.8997 166 83C166 72.1003 163.853 61.3073 159.682 51.2373C155.511 41.1673 149.397 32.0174 141.69 24.3101C133.983 16.6029 124.833 10.4891 114.763 6.31801C104.693 2.14687 93.8997 8.13268e-06 83 8.0027e-06L83 83L83 166Z" fill="#ED1C24"/>
<g clip-path="url(#clip0_63:53)">
<path fill-rule="evenodd" clip-rule="evenodd" d="M83.44 22C117.37 22 144.88 49.51 144.88 83.44C144.88 117.37 117.37 144.88 83.44 144.88C49.51 144.88 22 117.37 22 83.44C22 49.51 49.51 22 83.44 22ZM83.44 78.65C86.09 78.65 88.23 80.8 88.23 83.44C88.23 86.08 86.09 88.23 83.44 88.23C80.8 88.23 78.65 86.09 78.65 83.44C78.65 80.8 80.8 78.65 83.44 78.65ZM83.44 63.99C94.18 63.99 102.89 72.7 102.89 83.44C102.89 94.18 94.18 102.89 83.44 102.89C72.7 102.89 64 94.18 64 83.44C64 72.7 72.7 63.99 83.44 63.99ZM35.59 71.95C38.8 63.36 43.89 55.7 50.36 49.47C56.82 43.25 64.66 38.44 73.36 35.56L74.92 40.28C66.92 42.93 59.73 47.34 53.8 53.05C47.85 58.78 43.18 65.81 40.24 73.68L35.59 71.95ZM51.12 75.58C53.13 70.19 56.33 65.37 60.39 61.46C64.45 57.55 69.37 54.53 74.84 52.73L76.39 57.45C71.63 59.03 67.36 61.65 63.83 65.04C60.29 68.45 57.51 72.63 55.76 77.31L51.12 75.58ZM116.28 90.54C114.27 95.93 111.07 100.75 107.01 104.66C102.95 108.57 98.03 111.59 92.56 113.39L91.01 108.67C95.77 107.09 100.05 104.48 103.57 101.08C107.11 97.67 109.89 93.49 111.64 88.81L116.28 90.54ZM131.81 94.17C128.6 102.75 123.51 110.41 117.04 116.65C110.58 122.88 102.74 127.68 94.04 130.56L92.48 125.84C100.48 123.19 107.67 118.78 113.6 113.07C119.55 107.34 124.22 100.31 127.16 92.44L131.81 94.17Z" fill="white"/>
</g>
<defs>
<clipPath id="clip0_63:53">
<rect width="122.88" height="122.88" fill="white" transform="translate(22 22)"/>
</clipPath>
</defs>
</svg>
