<svg width="166" height="166" viewBox="0 0 166 166" fill="none" xmlns="http://www.w3.org/2000/svg">
<path d="M166 83C166 72.1003 163.853 61.3073 159.682 51.2373C155.511 41.1673 149.397 32.0174 141.69 24.3101C133.983 16.6029 124.833 10.4891 114.763 6.318C104.693 2.14686 93.8997 -4.76442e-07 83 0L83 83H166Z" fill="#ED1C24"/>
<g clip-path="url(#clip0_66:76)">
<path fill-rule="evenodd" clip-rule="evenodd" d="M82.44 21C116.37 21 143.88 48.51 143.88 82.44C143.88 116.37 116.37 143.88 82.44 143.88C48.51 143.88 21 116.37 21 82.44C21 48.51 48.51 21 82.44 21ZM82.44 77.65C85.09 77.65 87.23 79.8 87.23 82.44C87.23 85.08 85.09 87.23 82.44 87.23C79.8 87.23 77.65 85.09 77.65 82.44C77.65 79.8 79.8 77.65 82.44 77.65ZM82.44 62.99C93.18 62.99 101.89 71.7 101.89 82.44C101.89 93.18 93.18 101.89 82.44 101.89C71.7 101.89 63 93.18 63 82.44C63 71.7 71.7 62.99 82.44 62.99ZM34.59 70.95C37.8 62.36 42.89 54.7 49.36 48.47C55.82 42.25 63.66 37.44 72.36 34.56L73.92 39.28C65.92 41.93 58.73 46.34 52.8 52.05C46.85 57.78 42.18 64.81 39.24 72.68L34.59 70.95ZM50.12 74.58C52.13 69.19 55.33 64.37 59.39 60.46C63.45 56.55 68.37 53.53 73.84 51.73L75.39 56.45C70.63 58.03 66.36 60.65 62.83 64.04C59.29 67.45 56.51 71.63 54.76 76.31L50.12 74.58ZM115.28 89.54C113.27 94.93 110.07 99.75 106.01 103.66C101.95 107.57 97.03 110.59 91.56 112.39L90.01 107.67C94.77 106.09 99.05 103.48 102.57 100.08C106.11 96.67 108.89 92.49 110.64 87.81L115.28 89.54ZM130.81 93.17C127.6 101.75 122.51 109.41 116.04 115.65C109.58 121.88 101.74 126.68 93.04 129.56L91.48 124.84C99.48 122.19 106.67 117.78 112.6 112.07C118.55 106.34 123.22 99.31 126.16 91.44L130.81 93.17Z" fill="white"/>
</g>
<defs>
<clipPath id="clip0_66:76">
<rect width="122.88" height="122.88" fill="white" transform="translate(21 21)"/>
</clipPath>
</defs>
</svg>
