<svg width="56" height="56" viewBox="0 0 56 56" fill="none" xmlns="http://www.w3.org/2000/svg">
<g clip-path="url(#clip0_23:97)">
<path d="M33.3063 5.83226C32.9622 5.58064 32.618 5.45484 32.2739 5.70645C27.3416 7.46774 22.2945 6.08387 18.5092 2.18387C18.0504 1.68064 17.3622 1.68064 16.9033 2.18387C13.118 6.08387 8.07099 7.46774 3.13864 5.70645C2.79452 5.45484 2.4504 5.58064 2.10628 5.83226C1.87687 6.08387 1.64746 6.46129 1.64746 6.83871C1.64746 26.5903 9.56217 33.1323 17.2475 36.9064C17.3622 37.0323 17.5916 37.0323 17.7063 37.0323C17.821 37.0323 18.0504 37.0323 18.1651 36.9064C25.8504 33.1323 33.7651 26.5903 33.7651 6.83871C33.7651 6.46129 33.5357 6.08387 33.3063 5.83226ZM24.2445 16.5258L17.3622 24.0742C17.1328 24.3258 16.9033 24.4516 16.5592 24.4516C16.2151 24.4516 15.9857 24.3258 15.7563 24.0742L12.3151 20.3C11.8563 19.7968 11.8563 19.0419 12.3151 18.5387C12.7739 18.0355 13.4622 18.0355 13.921 18.5387L16.5592 21.4323L22.6386 14.7645C23.0975 14.2613 23.7857 14.2613 24.2445 14.7645C24.7033 15.2677 24.7033 16.0226 24.2445 16.5258Z" fill="white"/>
</g>
<path d="M53.1692 32.5274C52.9427 31.0371 52.1501 29.7952 50.9045 28.9258C48.8662 27.4355 47.1677 25.3242 46.0354 22.9645L45.5824 21.971C45.3559 21.4742 44.7898 21.2258 44.3368 21.35C43.8839 21.35 43.5442 21.8468 43.5442 22.4677V42.0903C42.6383 41.4694 41.3927 41.0968 40.1471 41.0968C36.9765 41.0968 34.4854 43.3323 34.4854 46.0645C34.4854 48.7968 36.9765 51.0323 40.1471 51.0323C43.3177 51.0323 45.8089 48.7968 45.8089 46.0645V26.9387C46.9412 28.429 48.1868 29.7952 49.6589 30.9129C50.3383 31.4097 50.7912 32.1548 50.9045 33.0242C51.0177 33.8935 50.9045 34.7629 50.4515 35.5081C50.1118 36.129 50.2251 36.8742 50.7912 37.2468C51.3574 37.6194 52.0368 37.4952 52.3765 36.8742C53.1692 35.5081 53.5089 34.0177 53.1692 32.5274Z" fill="white"/>
<path d="M31.0881 47.3064H23.1616C22.4822 47.3064 22.0293 47.8032 22.0293 48.5484C22.0293 49.2935 22.4822 49.7903 23.1616 49.7903H31.0881C31.7675 49.7903 32.2205 49.2935 32.2205 48.5484C32.2205 47.8032 31.7675 47.3064 31.0881 47.3064Z" fill="white"/>
<path d="M31.0881 41.0968H23.1616C22.4822 41.0968 22.0293 41.5936 22.0293 42.3387C22.0293 43.0839 22.4822 43.5806 23.1616 43.5806H31.0881C31.7675 43.5806 32.2205 43.0839 32.2205 42.3387C32.2205 41.5936 31.7675 41.0968 31.0881 41.0968Z" fill="white"/>
<path d="M23.1616 37.371H39.0146C39.694 37.371 40.1469 36.8742 40.1469 36.129C40.1469 35.3839 39.694 34.8871 39.0146 34.8871H23.1616C22.4822 34.8871 22.0293 35.3839 22.0293 36.129C22.0293 36.8742 22.4822 37.371 23.1616 37.371Z" fill="white"/>
<path d="M23.1616 31.1613H39.0146C39.694 31.1613 40.1469 30.6645 40.1469 29.9194C40.1469 29.1742 39.694 28.6774 39.0146 28.6774H23.1616C22.4822 28.6774 22.0293 29.1742 22.0293 29.9194C22.0293 30.6645 22.4822 31.1613 23.1616 31.1613Z" fill="white"/>
<path d="M23.1616 24.9516H39.0146C39.694 24.9516 40.1469 24.4548 40.1469 23.7097C40.1469 22.9645 39.694 22.4677 39.0146 22.4677H23.1616C22.4822 22.4677 22.0293 22.9645 22.0293 23.7097C22.0293 24.4548 22.4822 24.9516 23.1616 24.9516Z" fill="white"/>
<defs>
<clipPath id="clip0_23:97">
<rect width="32.9412" height="36.129" fill="white"/>
</clipPath>
</defs>
</svg>
