<svg width="56" height="56" viewBox="0 0 56 56" fill="none" xmlns="http://www.w3.org/2000/svg">
<g clip-path="url(#clip0_23:77)">
<path d="M52.2457 13.9451C49.7418 9.65541 46.3454 6.25901 42.0556 3.75523C37.765 1.25157 33.0813 0 28.0008 0C22.9209 0 18.2362 1.25157 13.946 3.75523C9.65592 6.25863 6.25952 9.65503 3.75561 13.9451C1.25157 18.2353 0 22.9205 0 28.0001C0 33.0797 1.25196 37.7643 3.75523 42.0548C6.25901 46.3436 9.65541 49.7409 13.9454 52.2449C18.2357 54.7484 22.9205 56.0001 28.0003 56.0001C33.0802 56.0001 37.7654 54.7484 42.0555 52.2449C46.3452 49.7418 49.7415 46.3445 52.2452 42.0548C54.7484 37.7643 55.9999 33.0793 55.9999 28.0001C56 22.9205 54.7484 18.2347 52.2457 13.9451ZM31.5028 42.7321C31.2585 42.4411 31.1741 42.1976 31.2476 42.0023C31.2232 42.1242 31.138 42.2335 30.9924 42.3304C30.871 42.1848 30.6515 42.0023 30.3359 41.7838C30.0195 41.5643 29.8011 41.3825 29.6796 41.2358C29.6305 41.1632 29.5642 41.06 29.4789 40.9263C29.3938 40.7926 29.2846 40.6165 29.1509 40.3975C29.018 40.1791 28.9209 39.9903 28.8599 39.832C28.7995 39.6739 28.7938 39.583 28.8415 39.5593C28.38 39.7542 27.7113 39.6205 26.8365 39.1581C26.6665 39.061 26.4109 38.8058 26.0708 38.3924C25.7307 37.9791 25.3782 37.7972 25.0135 37.8454C24.8921 37.8698 24.7279 37.9121 24.5212 37.9729C24.3149 38.0341 24.1386 38.0639 23.9926 38.0639C23.8467 38.0639 23.6522 38.0158 23.409 37.9178C23.2149 37.8454 22.9537 37.705 22.6255 37.4988C22.2976 37.2926 22.0724 37.1641 21.9512 37.1165C21.6353 36.946 21.4774 36.8612 21.4774 36.8612L20.894 36.5702C20.7481 36.4978 20.596 36.3822 20.438 36.2241C20.2801 36.0659 20.1771 35.9017 20.1285 35.7316C20.08 35.5861 20.0192 35.2942 19.9462 34.8563C19.8733 34.4183 19.7759 34.1029 19.6546 33.9088C19.509 33.6659 19.3024 33.4228 19.0347 33.1799C18.7677 32.937 18.5247 32.8145 18.3058 32.8145C18.5004 32.8145 18.5004 32.6516 18.3058 32.3225C18.1112 31.9938 17.9411 31.757 17.7952 31.612C17.7465 31.563 17.6006 31.4053 17.3575 31.1374C17.1145 30.8698 16.9079 30.6396 16.7378 30.4442C16.5679 30.2499 16.4214 30.0252 16.3002 29.7696C16.1789 29.5143 16.1542 29.3019 16.2273 29.1315C16.2514 29.1075 16.2273 29.0707 16.1542 29.0223C16.0813 28.9743 15.9905 28.9249 15.8808 28.8763C15.7717 28.8282 15.6682 28.7854 15.5713 28.7488C15.4736 28.7129 15.4007 28.6945 15.3523 28.6945C15.4012 28.7924 15.4557 28.9681 15.5166 29.2233C15.5774 29.4789 15.6442 29.6674 15.717 29.7889C15.7659 29.8859 15.9723 30.2389 16.3369 30.8454C16.9692 31.8663 17.2604 32.6206 17.2121 33.1065C17.0661 33.1546 16.9687 33.1309 16.9202 33.0339C16.8715 32.937 16.8347 32.8032 16.8107 32.6328C16.7865 32.4633 16.7625 32.3418 16.7377 32.2684C16.6648 32.1224 16.4764 31.9642 16.1724 31.7937C15.8687 31.6243 15.6801 31.4538 15.6073 31.2833C15.6318 31.2833 15.6617 31.272 15.6985 31.2467C15.7351 31.2223 15.7658 31.2109 15.7898 31.2109C15.8144 30.9923 15.6869 30.7128 15.4072 30.3718C15.1275 30.0319 15.0126 29.789 15.0609 29.6429C14.8663 29.4969 14.6962 29.2112 14.5502 28.7864C14.4044 28.3608 14.2827 28.0872 14.1855 27.9655C14.0885 27.8201 13.9673 27.6926 13.8212 27.5829C13.6752 27.4738 13.4933 27.3524 13.2743 27.2185C13.0555 27.0848 12.9096 26.9939 12.8366 26.9451C12.7879 26.9213 12.6909 26.8123 12.545 26.6177C11.743 25.6452 11.5 25.1225 11.8161 25.0497C11.5001 25.1225 11.2387 24.8858 11.0321 24.3384C10.8254 23.7918 10.7587 23.372 10.8315 23.0805L10.7587 23.0442C10.7832 22.9468 10.7952 22.6616 10.7952 22.1872C10.7952 21.7131 10.8259 21.2816 10.8866 20.8929C10.9476 20.504 11.0629 20.3093 11.2329 20.3093C11.0629 20.3336 10.9355 20.1813 10.8503 19.8538C10.7652 19.5254 10.7592 19.3003 10.8319 19.179C10.8562 19.106 10.9659 19.1552 11.1601 19.325C11.3542 19.4946 11.4637 19.6047 11.488 19.6529C11.8041 19.4823 11.9258 19.264 11.8527 18.9963C11.8041 18.8992 11.5488 18.6441 11.087 18.2306C10.0417 17.5504 9.50677 17.2221 9.48289 17.2461C9.62821 16.979 9.59194 16.7482 9.3732 16.5534C9.13031 16.6994 8.99061 16.7357 8.95396 16.6631C8.9177 16.5901 8.8873 16.4569 8.86266 16.2621C8.83865 16.0679 8.77761 15.9586 8.68069 15.9342C8.55899 15.91 8.41303 15.8129 8.24307 15.6427C10.4062 12.1912 13.262 9.49336 16.8107 7.54851C16.9564 7.52451 17.2237 7.51225 17.6126 7.51225C17.8068 7.53651 17.9893 7.59742 18.1592 7.69447C18.3295 7.79152 18.5058 7.92548 18.6878 8.09545C18.8704 8.26503 19.0101 8.38673 19.1071 8.45977C19.1558 8.31381 19.0951 8.09506 18.925 7.8034C18.9733 7.65744 19.2408 7.51148 19.727 7.36578C20.2857 7.29286 20.6506 7.30474 20.8206 7.40243C20.675 7.18355 20.4321 6.87963 20.0917 6.49091L19.9095 6.67288C19.7149 6.50292 19.2048 6.58784 18.3782 6.92815C18.33 6.95216 18.2083 7.01946 18.0137 7.12851C17.8194 7.23769 17.661 7.31687 17.5398 7.36539C17.3938 7.41405 17.2481 7.42618 17.1021 7.40192C18.2687 6.77019 19.4113 6.27114 20.5296 5.90695C20.6019 5.95522 20.7237 6.05865 20.8939 6.21649C21.0639 6.37445 21.1976 6.49015 21.2949 6.56281C21.222 6.51454 21.1732 6.53829 21.1489 6.63572C21.0519 6.92726 21.0519 7.17027 21.1489 7.36463C21.2702 7.53523 21.4344 7.6319 21.6412 7.65655C21.8479 7.68055 22.0968 7.66855 22.3885 7.61977C22.6801 7.5715 22.8749 7.54685 22.9721 7.54685L23.3368 7.58363C24.1143 7.65655 24.4184 7.58363 24.2483 7.36463C24.3211 7.46232 24.4061 7.66268 24.5033 7.9666C24.6003 8.27052 24.71 8.48327 24.8312 8.60483C24.9529 8.50715 24.9772 8.33718 24.9041 8.09417C24.8312 7.85116 24.8312 7.68055 24.9041 7.5835C24.9282 7.53523 25.0012 7.48607 25.1229 7.43754C25.2446 7.38927 25.3842 7.33462 25.5423 7.27383C25.7002 7.21279 25.8035 7.1704 25.8526 7.14626C25.9983 7.04883 25.9008 6.87861 25.5606 6.6356C25.512 6.61121 25.4089 6.57481 25.2511 6.52616C25.0931 6.47827 24.9531 6.42898 24.8317 6.38058C24.7104 6.33231 24.5829 6.26527 24.4492 6.18022C24.3155 6.09505 24.2545 5.998 24.2664 5.8883C24.2787 5.77861 24.3458 5.63916 24.467 5.46894C24.613 5.34776 24.8501 5.29898 25.1781 5.32324C25.506 5.34725 25.7554 5.4079 25.9253 5.50521C26.582 5.86992 26.6789 6.19861 26.2173 6.48976C26.4607 6.51377 26.7523 6.61108 27.0925 6.78104C27.4324 6.95139 27.5661 7.13375 27.4935 7.32836C27.688 6.96378 27.8822 6.78104 28.0769 6.78104C28.1983 6.80569 28.3142 6.96991 28.4233 7.27371C28.5324 7.57737 28.5991 7.74134 28.6232 7.76598C28.8181 8.033 29.0113 8.09391 29.2071 7.94795C29.4012 7.80225 29.6022 7.58963 29.8084 7.30997C30.0146 7.0307 30.1301 6.90312 30.1546 6.92739C29.9116 6.83059 29.8862 6.73316 30.0821 6.63585C30.4456 6.4171 30.7743 6.35619 31.0662 6.45388C31.1386 6.50215 31.2366 6.61184 31.3571 6.78143C31.5752 7.21956 31.539 7.42579 31.2479 7.40153C31.4664 7.59614 31.557 7.83941 31.5216 8.13069C31.485 8.42235 31.2956 8.55618 30.9556 8.53166C30.8346 8.53166 30.6576 8.47062 30.4263 8.34944C30.1956 8.22812 30.0195 8.16146 29.8975 8.14908C29.7761 8.13644 29.6056 8.20348 29.3871 8.34944C29.2901 8.47113 29.1625 8.67788 29.0043 8.96929C28.8462 9.26146 28.7062 9.46769 28.5848 9.58901C28.2205 9.95359 27.6122 10.0875 26.7616 9.98998C26.8347 9.98998 26.8283 10.0629 26.7433 10.2089C26.6578 10.3546 26.5429 10.5189 26.3969 10.701C26.251 10.8832 26.1659 10.9865 26.1419 11.0108C25.923 11.2538 25.7773 11.5335 25.7043 11.8494C25.7043 11.8981 25.692 12.0623 25.6675 12.3414C25.6429 12.6211 25.5946 12.8341 25.5216 12.9797C25.8132 12.9067 26.0442 13.0531 26.2142 13.4173C26.3602 13.7577 26.3602 13.9399 26.2142 13.9645C27.0165 13.8434 27.7214 13.8917 28.3295 14.1104C29.2044 14.4264 29.7034 14.7423 29.8249 15.0583C29.9701 14.8393 30.3223 14.8269 30.8816 15.0216C31.1005 15.1429 31.294 15.508 31.4653 16.1152C31.5623 16.4795 31.7267 16.7958 31.9574 17.0629C32.1887 17.3302 32.4373 17.403 32.7051 17.2817L32.814 17.2088C32.9115 17.1605 32.9901 17.1177 33.0508 17.0813C33.112 17.0451 33.1784 16.9963 33.2509 16.9354C33.3243 16.8746 33.3671 16.8199 33.3785 16.7717C33.3898 16.7231 33.3723 16.674 33.3243 16.6257C33.1539 16.4797 33.0263 16.2794 32.9415 16.0245C32.8572 15.7692 32.8755 15.5442 32.9967 15.3495C33.0691 15.2524 33.2637 15.1065 33.5795 14.9119C33.8959 14.7171 34.0904 14.5229 34.1628 14.3284C34.2613 14.0125 34.1388 13.7511 33.7987 13.5442C33.4584 13.338 33.2879 13.1496 33.2879 12.9791C33.2879 12.8574 33.367 12.7119 33.5247 12.5415C33.6833 12.3716 33.7502 12.2131 33.7253 12.0676C33.7253 11.9942 33.6824 11.8426 33.5976 11.6116C33.5133 11.3802 33.4639 11.2103 33.452 11.101C33.4398 10.9915 33.4949 10.8639 33.6159 10.7184C33.7854 10.6209 34.1867 10.6271 34.8185 10.7362C35.4505 10.8459 35.864 10.9614 36.0589 11.0826C36.1322 11.1308 36.29 11.2039 36.533 11.3014C36.7759 11.398 36.9888 11.5013 37.1715 11.6111C37.3528 11.7203 37.4563 11.8232 37.4804 11.9207H37.2986C37.4685 12.067 37.5722 12.2366 37.608 12.4313C37.6448 12.6264 37.5538 12.7719 37.3353 12.8695C37.4804 12.8448 37.6757 12.8815 37.9187 12.9786C38.3076 13.1243 38.3199 13.2583 37.9553 13.3796C38.0278 13.355 38.131 13.3311 38.2643 13.3066C38.398 13.2823 38.5008 13.2457 38.5741 13.1974C38.6223 13.1729 38.6833 13.1307 38.756 13.0697C38.8294 13.0089 38.8836 12.9723 38.9203 12.9606C38.957 12.9486 39.0111 12.936 39.0846 12.9239C39.1571 12.9118 39.2297 12.9302 39.3022 12.9785C39.3276 12.9785 39.3817 12.9176 39.4665 12.7963C39.5508 12.6751 39.6431 12.5534 39.7396 12.4321C39.8372 12.3108 39.9215 12.2501 39.9949 12.2501C40.0669 12.2501 40.1344 12.28 40.1945 12.3408C40.2561 12.4018 40.3037 12.4684 40.3406 12.5414C40.3772 12.6144 40.413 12.6935 40.4498 12.778C40.4864 12.8631 40.5162 12.9304 40.5407 12.9786C40.5887 13.0999 40.7049 13.228 40.8868 13.3612C41.0686 13.4945 41.1839 13.6225 41.2328 13.7438C41.2573 13.8168 41.305 13.9992 41.3784 14.2912C41.4509 14.5829 41.5489 14.7833 41.6699 14.8925C41.7914 15.0021 41.9736 15.0931 42.2165 15.1659C42.2651 15.1905 42.3752 15.1781 42.5447 15.1298C42.7143 15.0809 42.8546 15.0688 42.9638 15.0931C43.0739 15.1171 43.128 15.2141 43.128 15.3847C43.2736 15.2388 43.3461 15.1413 43.3461 15.0931C43.371 15.4091 43.4493 15.6645 43.5839 15.8587C43.7176 16.0528 43.9299 16.1384 44.2219 16.1138L44.1484 16.9161C44.0759 17.0374 43.8937 17.1283 43.6014 17.189C43.3095 17.25 43.1276 17.3051 43.0542 17.3533C42.9817 17.3776 42.8052 17.5234 42.5254 17.7911C42.2457 18.0587 42.1312 18.2167 42.1793 18.265C41.7669 17.8031 41.1461 17.6694 40.3202 17.864C39.3969 18.0098 38.7644 18.1557 38.4245 18.3016C38.0359 18.4964 37.768 18.6783 37.6221 18.8483C37.5978 18.8726 37.5561 18.958 37.495 19.1036C37.4342 19.2493 37.3735 19.3832 37.3131 19.5045C37.2516 19.6259 37.1978 19.6866 37.1493 19.6866C37.2956 19.663 37.4592 19.5469 37.6414 19.3407C37.8242 19.134 37.9395 19.019 37.9876 18.9944C38.619 18.5814 39.1416 18.4354 39.5573 18.5598C40.0918 18.7058 40.177 18.9004 39.812 19.1434C39.7644 19.1917 39.636 19.2099 39.4297 19.1981C39.2235 19.1861 39.0835 19.1917 39.0102 19.2165C39.2296 19.2647 39.4113 19.3318 39.5582 19.4163C39.7033 19.5013 39.74 19.6169 39.667 19.7626C40.0556 19.9815 40.1289 20.2245 39.886 20.4922C39.5695 20.8086 39.1937 20.9418 38.7559 20.8931C38.8293 20.8931 38.8293 20.9419 38.7559 21.039L38.1354 21.4399C38.0872 21.4638 37.9291 21.5245 37.6616 21.6222C37.3942 21.7187 37.2116 21.8289 37.1145 21.9501C37.042 22.0474 37.0054 22.1931 37.0054 22.3882C37.0054 22.583 36.9931 22.7289 36.9687 22.826C36.9447 22.9237 36.8471 22.9472 36.6777 22.8989C36.6043 23.0446 36.3796 23.1602 36.0029 23.2447C35.6262 23.3297 35.3772 23.4573 35.2556 23.6273C35.4007 23.822 35.3893 24.0163 35.2189 24.2109C34.9269 24.4543 34.6718 24.4296 34.4533 24.1379C34.3319 24.1866 34.2404 24.3079 34.1797 24.5027C34.1194 24.6973 34.0277 24.831 33.9069 24.9036C34.0774 25.171 34.0521 25.366 33.8345 25.487C33.8581 25.487 33.9131 25.5116 33.9978 25.56C34.0826 25.6085 34.1735 25.6692 34.2715 25.7422C34.3685 25.8153 34.4287 25.8519 34.4533 25.8519C34.3563 26.0702 34.222 26.1795 34.0521 26.1795C34.198 26.5686 34.0162 26.9942 33.5059 27.4557C33.4078 27.5527 33.2559 27.6498 33.0496 27.7473C32.842 27.8444 32.6542 27.9232 32.4837 27.9841C32.3132 28.045 32.2167 28.0874 32.1923 28.1117C31.9493 28.3308 31.7665 28.5554 31.6456 28.7862C31.5245 29.0174 31.5062 29.2419 31.5904 29.4609C31.6757 29.6803 31.9004 29.8254 32.2656 29.8988L32.301 30.1902V30.8462L32.3376 31.1381C32.3625 31.3081 32.3809 31.4602 32.3928 31.5943C32.4046 31.7281 32.4046 31.8975 32.3928 32.1047C32.3809 32.3109 32.326 32.4267 32.2289 32.4504C32.1324 32.4753 31.9986 32.4504 31.8281 32.3774C31.6328 32.2804 31.4025 31.7456 31.1346 30.7735C31.086 30.5307 30.9397 30.2395 30.6967 29.8987C30.5752 30.0201 30.4721 30.0988 30.3873 30.1352C30.3029 30.1718 30.2412 30.1785 30.2058 30.1536C30.1692 30.1296 30.1022 30.0745 30.0049 29.9897C29.9079 29.9049 29.8235 29.8376 29.7502 29.7896C29.6286 29.7171 29.4162 29.6558 29.1117 29.6078C28.8084 29.5593 28.619 29.4981 28.547 29.4256C27.963 29.8638 27.6103 29.7536 27.489 29.0983C27.4407 29.2193 27.4466 29.3832 27.5074 29.5904C27.5684 29.797 27.5987 29.9121 27.5987 29.9365C27.4287 30.2529 27.1615 30.2764 26.7968 30.009C26.6508 29.8638 26.3165 29.8456 25.7938 29.9547C25.2712 30.0637 24.9248 30.0819 24.7549 30.009C24.7795 30.009 24.8278 30.0453 24.9008 30.1186C24.9736 30.1662 25.0225 30.203 25.0467 30.2275C25.0221 30.3251 24.9859 30.3975 24.937 30.446C24.8882 30.4941 24.8395 30.5125 24.7911 30.5012C24.7425 30.4889 24.6878 30.4889 24.6268 30.5012C24.566 30.5125 24.5115 30.5308 24.4627 30.5553C24.3655 30.6278 24.2442 30.7554 24.0982 30.9376C23.9525 31.12 23.8432 31.2353 23.7703 31.2833C23.9159 31.6723 23.9829 31.9703 23.9709 32.1766C23.9583 32.3837 23.9223 32.6875 23.8612 33.0882C23.8002 33.4889 23.7699 33.8115 23.7699 34.0549C23.7699 34.4428 23.8855 34.8939 24.1162 35.4035C24.3472 35.9139 24.6205 36.2661 24.9366 36.461C25.1072 36.558 25.399 36.6183 25.8118 36.6424C26.2249 36.6672 26.5167 36.6424 26.6867 36.5699C26.8326 36.4979 26.9417 36.4122 27.0146 36.3151C27.0875 36.2181 27.1486 36.0774 27.1968 35.8957C27.2455 35.7138 27.2823 35.5862 27.3065 35.5137C27.4765 35.0513 27.7924 34.8084 28.2537 34.7839C28.5465 34.7595 28.758 34.7909 28.8926 34.8748C29.0263 34.96 29.0805 35.0753 29.056 35.2214C29.0315 35.3669 28.9831 35.519 28.9108 35.677C28.8375 35.8353 28.7466 36.011 28.637 36.206C28.5284 36.4012 28.4611 36.5468 28.4376 36.6444C28.3889 36.8387 28.3457 37.1119 28.31 37.4651C28.2733 37.8173 28.2426 38.0301 28.2182 38.1034C28.2672 38.1272 28.4492 38.1393 28.7649 38.1393C28.7649 38.0912 28.7832 38.0116 28.8199 37.9024C28.8558 37.7933 28.8742 37.7263 28.8742 37.7023C28.9961 37.8972 29.1906 38.0056 29.458 38.0301C29.7254 38.0545 29.9203 37.9576 30.0417 37.7386C30.0907 37.8116 30.2366 37.9943 30.4797 38.2862C30.7226 38.5772 30.8563 38.8202 30.8809 39.0151C30.9053 39.113 30.9533 39.2703 31.026 39.4897C31.0994 39.7082 31.124 39.8603 31.0994 39.9459C31.075 40.0298 30.9534 40.0731 30.735 40.0731C30.6379 40.0731 30.5769 40.1097 30.5531 40.1822C30.5279 40.2557 30.5279 40.3461 30.5531 40.4554C30.5777 40.5646 30.6083 40.6683 30.6441 40.7653C30.6803 40.8619 30.7289 40.9659 30.7893 41.0752C30.8512 41.1837 30.8811 41.2508 30.8811 41.2752C31.3181 42.0766 31.9142 42.2957 32.6674 41.9317C32.6674 42.6362 32.4971 43.0251 32.1561 43.0976C31.964 43.1459 31.7458 43.0232 31.5028 42.7321ZM32.0473 50.9688C31.9993 50.7258 31.9748 50.5317 31.9775 50.3866C31.9521 50.1918 32.0378 49.9304 32.2317 49.6026C32.4261 49.2749 32.5231 49.0252 32.5231 48.8553C32.1343 48.7582 31.9886 48.4419 32.0849 47.9074C32.1338 47.5425 32.486 47.0565 33.1424 46.449C33.6046 46.0357 33.7498 45.4517 33.5802 44.6989C33.5068 44.3829 33.4456 43.9206 33.3975 43.313C33.3495 42.7052 33.3004 42.2799 33.2515 42.0371C33.2515 42.1096 33.3669 42.1765 33.5985 42.2372C33.8294 42.2974 33.9691 42.377 34.0176 42.4732C34.0661 42.4011 34.1265 42.2669 34.1998 42.0728C34.2724 41.878 34.3459 41.7325 34.4174 41.6349C34.4665 41.562 34.5695 41.4711 34.7279 41.3613C34.886 41.2521 34.9891 41.1857 35.0377 41.1612C35.0853 41.1372 35.1954 41.0585 35.365 40.9244C35.5353 40.7907 35.6753 40.6879 35.7848 40.615C35.8949 40.5421 36.0396 40.4874 36.2223 40.4516C36.4051 40.4149 36.5322 40.4692 36.6046 40.615C36.7266 40.7611 36.7026 40.9856 36.5322 41.2898C36.3618 41.594 36.3618 41.8067 36.5322 41.9286C36.557 41.8552 36.5808 41.6966 36.6046 41.4536C36.6295 41.2106 36.7026 41.0284 36.8237 40.906C36.9696 40.761 37.1089 40.6753 37.2431 40.6517C37.3768 40.6264 37.4979 40.6446 37.6068 40.7063C37.7169 40.7671 37.8445 40.851 37.9897 40.9611C38.1356 41.0703 38.2692 41.1373 38.3908 41.1612C38.7552 41.2827 39.1931 41.5502 39.7035 41.9635C39.6791 41.9387 39.6791 41.9085 39.7035 41.8717C39.728 41.8359 39.776 41.7993 39.8496 41.7625C39.9221 41.7268 39.9885 41.6901 40.0497 41.6533C40.11 41.6171 40.1764 41.5878 40.2498 41.5629L40.359 41.5263C40.5286 41.5263 40.6504 41.5144 40.723 41.4895C40.7955 41.4655 40.9 41.4895 41.0328 41.5629C41.1658 41.6354 41.2576 41.6901 41.3056 41.7268C41.3545 41.7625 41.4393 41.8294 41.5609 41.9269C41.6823 42.0239 41.768 42.0973 41.8151 42.1454C41.8886 42.1934 42.0223 42.279 42.2164 42.4006C42.4112 42.5221 42.5633 42.6191 42.6726 42.6915C42.7827 42.764 42.8796 42.8743 42.9635 43.0188C43.0483 43.1657 43.0799 43.3235 43.0553 43.4938C43.2014 43.5184 43.4924 43.6149 43.9303 43.7849C44.0037 43.833 44.1549 43.8763 44.3865 43.9121C44.6173 43.9487 44.7693 44.0039 44.8422 44.0759C41.3206 47.7969 37.0541 50.0938 32.0473 50.9688Z" fill="white"/>
</g>
<defs>
<clipPath id="clip0_23:77">
<rect width="56" height="56" fill="white"/>
</clipPath>
</defs>
</svg>
