<svg width="118" height="123" viewBox="0 0 118 123" fill="none" xmlns="http://www.w3.org/2000/svg">
<g clip-path="url(#clip0_31:845)">
<path d="M48.5 97C38.9076 97 29.5307 94.1556 21.5549 88.8263C13.5791 83.4971 7.36271 75.9224 3.69186 67.0602C0.0210142 58.198 -0.939448 48.4462 0.931936 39.0381C2.80332 29.6301 7.4225 20.9882 14.2053 14.2053C20.9882 7.4225 29.6301 2.80332 39.0381 0.931936C48.4462 -0.939448 58.198 0.0210142 67.0602 3.69186C75.9224 7.36271 83.4971 13.5791 88.8263 21.5549C94.1556 29.5307 97 38.9076 97 48.5C96.9897 61.3599 91.8766 73.6901 82.7833 82.7833C73.6901 91.8766 61.3599 96.9897 48.5 97ZM26.3452 87.2224C34.8438 92.0777 44.703 94.0039 54.404 92.7043C64.105 91.4047 73.1096 86.9514 80.0305 80.0305C86.9514 73.1096 91.4047 64.105 92.7043 54.404C94.0039 44.703 92.0777 34.8438 87.2224 26.3452L67.318 38.4508C69.4679 42.4869 70.2644 47.1068 69.5902 51.6298C68.9159 56.1527 66.8066 60.3395 63.5731 63.5731C60.3395 66.8066 56.1527 68.9159 51.6298 69.5902C47.1068 70.2644 42.4869 69.4679 38.4508 67.318L26.3452 87.2224ZM11.834 73.914C14.878 78.2865 18.6748 82.0832 23.0472 85.1272L35.2304 65.184C33.9674 64.178 32.8221 63.0326 31.816 61.7696L11.834 73.914ZM48.5 3.88002C40.6769 3.86796 32.9881 5.91292 26.2047 9.80984C19.4213 13.7068 13.7816 19.3187 9.85126 26.0828C5.92092 32.8469 3.83804 40.5255 3.81149 48.3486C3.78495 56.1716 5.81567 63.8642 9.70002 70.6548L29.6044 58.5492C27.4545 54.5132 26.658 49.8932 27.3323 45.3703C28.0065 40.8473 30.1158 36.6605 33.3494 33.427C36.5829 30.1934 40.7697 28.0841 45.2927 27.4099C49.8156 26.7356 54.4356 27.5321 58.4716 29.682L70.5772 9.77762C63.8597 5.91701 56.2479 3.88364 48.5 3.88002ZM48.5 31.04C45.0468 31.04 41.671 32.064 38.7998 33.9826C35.9285 35.9011 33.6906 38.628 32.3691 41.8184C31.0476 45.0088 30.7018 48.5194 31.3755 51.9063C32.0492 55.2932 33.7121 58.4043 36.1539 60.8461C38.5958 63.2879 41.7068 64.9508 45.0937 65.6245C48.4807 66.2982 51.9913 65.9525 55.1817 64.631C58.3721 63.3095 61.099 61.0716 63.0175 58.2003C64.936 55.329 65.96 51.9533 65.96 48.5C65.96 43.8693 64.1205 39.4283 60.8461 36.1539C57.5717 32.8796 53.1307 31.04 48.5 31.04ZM61.7696 31.816C63.0326 32.8221 64.178 33.9674 65.184 35.2304L85.1272 23.086C82.0832 18.7136 78.2865 14.9168 73.914 11.8728L61.7696 31.816ZM48.5 58.2C46.5815 58.2 44.7061 57.6311 43.111 56.5653C41.5158 55.4994 40.2726 53.9845 39.5384 52.2121C38.8042 50.4396 38.6121 48.4893 38.9864 46.6076C39.3607 44.726 40.2845 42.9977 41.6411 41.6411C42.9977 40.2845 44.726 39.3607 46.6076 38.9864C48.4893 38.6121 50.4396 38.8042 52.2121 39.5384C53.9845 40.2726 55.4994 41.5158 56.5653 43.111C57.6311 44.7061 58.2 46.5815 58.2 48.5C58.2 51.0726 57.1781 53.5399 55.359 55.359C53.5399 57.1781 51.0726 58.2 48.5 58.2ZM48.5 42.68C47.3489 42.68 46.2237 43.0214 45.2666 43.6609C44.3095 44.3004 43.5635 45.2093 43.123 46.2728C42.6825 47.3363 42.5673 48.5065 42.7919 49.6355C43.0164 50.7644 43.5707 51.8014 44.3847 52.6154C45.1986 53.4293 46.2356 53.9836 47.3646 54.2082C48.4936 54.4328 49.6638 54.3175 50.7272 53.877C51.7907 53.4365 52.6997 52.6905 53.3392 51.7334C53.9787 50.7763 54.32 49.6511 54.32 48.5C54.32 46.9565 53.7068 45.4761 52.6154 44.3847C51.5239 43.2932 50.0436 42.68 48.5 42.68Z" fill="white"/>
</g>
<path d="M65.0801 121.259L71.3801 118.109L76.4201 120.629L81.4601 118.109L86.5001 120.629L91.5401 118.109L96.5801 120.629L101.62 118.109L107.92 121.259V61.26H65.0801V121.259ZM67.6001 63.78H105.4V117.181L101.62 115.291L96.5801 117.811L91.5401 115.291L86.5001 117.811L81.4601 115.291L76.4201 117.811L71.3801 115.291L67.6001 117.181V63.78Z" fill="#ED1C24"/>
<path d="M86.5002 80.16C89.974 80.16 92.8002 77.3338 92.8002 73.86C92.8002 70.3862 89.974 67.56 86.5002 67.56C83.0264 67.56 80.2002 70.3862 80.2002 73.86C80.2002 77.3338 83.0264 80.16 86.5002 80.16ZM86.5002 70.08C88.5842 70.08 90.2802 71.776 90.2802 73.86C90.2802 75.944 88.5842 77.64 86.5002 77.64C84.4162 77.64 82.7202 75.944 82.7202 73.86C82.7202 71.776 84.4162 70.08 86.5002 70.08Z" fill="#ED1C24"/>
<path d="M87.7596 87.72H72.6396V90.24H87.7596V87.72Z" fill="#ED1C24"/>
<path d="M100.36 87.72H95.3203V90.24H100.36V87.72Z" fill="#ED1C24"/>
<path d="M87.7596 94.02H72.6396V96.54H87.7596V94.02Z" fill="#ED1C24"/>
<path d="M100.36 94.02H95.3203V96.54H100.36V94.02Z" fill="#ED1C24"/>
<path d="M87.7596 100.32H72.6396V102.84H87.7596V100.32Z" fill="#ED1C24"/>
<path d="M100.36 100.32H95.3203V102.84H100.36V100.32Z" fill="#ED1C24"/>
<path d="M87.7596 106.62H72.6396V109.14H87.7596V106.62Z" fill="#ED1C24"/>
<path d="M100.36 106.62H95.3203V109.14H100.36V106.62Z" fill="#ED1C24"/>
<defs>
<clipPath id="clip0_31:845">
<rect width="97" height="97" fill="white"/>
</clipPath>
</defs>
</svg>
