<svg width="132" height="132" viewBox="0 0 132 132" fill="none" xmlns="http://www.w3.org/2000/svg">
<g clip-path="url(#clip0_31:841)">
<path d="M59.8318 116.4C47.9982 116.4 36.4303 112.987 26.5911 106.592C16.7518 100.196 9.08298 91.1069 4.55445 80.4722C0.0259241 69.8376 -1.15894 58.1355 1.14968 46.8458C3.4583 35.5561 9.15673 25.1858 17.5243 17.0464C25.892 8.907 36.553 3.36398 48.1592 1.11832C59.7654 -1.12734 71.7956 0.0252171 82.7284 4.43024C93.6613 8.83526 103.006 16.2949 109.58 25.8658C116.155 35.4368 119.664 46.6892 119.664 58.2C119.651 73.6318 113.343 88.4281 102.125 99.34C90.9074 110.252 75.6963 116.388 59.8318 116.4ZM32.5006 104.667C42.9848 110.493 55.1476 112.805 67.1152 111.245C79.0828 109.686 90.1912 104.342 98.7292 96.0366C107.267 87.7315 112.761 76.926 114.364 65.2848C115.967 53.6435 113.591 41.8125 107.601 31.6143L83.0465 46.141C85.6987 50.9843 86.6813 56.5282 85.8496 61.9557C85.0178 67.3833 82.4156 72.4074 78.4266 76.2877C74.4375 80.1679 69.2725 82.6991 63.6928 83.5082C58.1131 84.3173 52.4137 83.3615 47.4347 80.7816L32.5006 104.667ZM14.599 88.6968C18.3542 93.9438 23.038 98.4999 28.4321 102.153L43.4618 78.2208C41.9038 77.0136 40.4908 75.6391 39.2497 74.1236L14.599 88.6968ZM59.8318 4.65603C50.1809 4.64155 40.6957 7.09551 32.3273 11.7718C23.959 16.4481 17.0016 23.1824 12.153 31.2993C7.30431 39.4163 4.73477 48.6306 4.70203 58.0183C4.66928 67.406 7.17447 76.637 11.9664 84.7858L36.5213 70.2591C33.8692 65.4158 32.8865 59.8719 33.7183 54.4443C34.5501 49.0168 37.1522 43.9927 41.1413 40.1124C45.1304 36.2321 50.2953 33.7009 55.8751 32.8918C61.4548 32.0828 67.1541 33.0386 72.1332 35.6184L87.0672 11.7331C78.7802 7.10041 69.39 4.66036 59.8318 4.65603ZM59.8318 37.248C55.5717 37.248 51.4073 38.4768 47.8651 40.7791C44.323 43.0813 41.5622 46.3536 39.932 50.182C38.3017 54.0105 37.8751 58.2233 38.7062 62.2876C39.5373 66.3519 41.5888 70.0851 44.6011 73.0153C47.6135 75.9455 51.4514 77.941 55.6297 78.7494C59.8079 79.5579 64.1388 79.143 68.0746 77.5572C72.0104 75.9713 75.3744 73.2859 77.7412 69.8403C80.108 66.3948 81.3712 62.3439 81.3712 58.2C81.3712 52.6432 79.1019 47.314 75.0625 43.3847C71.0231 39.4555 65.5444 37.248 59.8318 37.248ZM76.2018 38.1792C77.7598 39.3865 79.1728 40.7609 80.4139 42.2765L105.017 27.7032C101.262 22.4563 96.5777 17.9002 91.1837 14.2474L76.2018 38.1792ZM59.8318 69.84C57.4651 69.84 55.1515 69.1574 53.1837 67.8783C51.2158 66.5993 49.682 64.7814 48.7763 62.6545C47.8706 60.5275 47.6337 58.1871 48.0954 55.9292C48.5571 53.6712 49.6968 51.5972 51.3703 49.9693C53.0438 48.3414 55.176 47.2328 57.4973 46.7837C59.8185 46.3346 62.2246 46.5651 64.4111 47.4461C66.5977 48.3271 68.4666 49.819 69.7815 51.7332C71.0963 53.6474 71.7982 55.8979 71.7982 58.2C71.7982 61.2872 70.5374 64.2478 68.2933 66.4308C66.0492 68.6137 63.0055 69.84 59.8318 69.84ZM59.8318 51.216C58.4118 51.216 57.0236 51.6256 55.8429 52.393C54.6622 53.1605 53.7419 54.2512 53.1985 55.5274C52.6551 56.8035 52.5129 58.2078 52.7899 59.5625C53.067 60.9173 53.7508 62.1617 54.7549 63.1385C55.759 64.1152 57.0383 64.7804 58.4311 65.0498C59.8238 65.3193 61.2675 65.181 62.5794 64.6524C63.8913 64.1238 65.0127 63.2286 65.8016 62.0801C66.5905 60.9316 67.0116 59.5813 67.0116 58.2C67.0116 56.3478 66.2552 54.5714 64.9087 53.2616C63.5622 51.9518 61.736 51.216 59.8318 51.216Z" fill="white"/>
</g>
<ellipse cx="119.047" cy="119.4" rx="12.9533" ry="12.6" fill="#ED1C24"/>
<defs>
<clipPath id="clip0_31:841">
<rect width="119.664" height="116.4" fill="white"/>
</clipPath>
</defs>
</svg>
