<svg width="56" height="56" viewBox="0 0 56 56" fill="none" xmlns="http://www.w3.org/2000/svg">
<path d="M9.94447 34.8276L8.49479 35.0765C7.87647 35.1819 7.24089 35.1079 6.66338 34.8631C6.08587 34.6184 5.59064 34.2131 5.23641 33.6955L5.01113 33.3651L2.00879 39.6351L4.90313 39.5207L6.62888 41.8471L9.98308 34.8441L9.94447 34.8276Z" fill="white"/>
<path d="M15.8709 33.8085L14.786 34.8026C14.181 35.355 13.3911 35.6609 12.5718 35.6601C12.5418 35.6601 12.5125 35.6594 12.4824 35.6587L15.4462 41.8471L17.1712 39.5207L20.0655 39.6351L17.169 33.5861L15.8709 33.8085Z" fill="white"/>
<path d="M2.48769 28.9428C2.49737 29.2959 2.60834 29.6387 2.80737 29.9305C3.00641 30.2223 3.28512 30.4508 3.61032 30.5886L5.35154 31.3269L6.41724 32.8893C6.61628 33.1811 6.895 33.4095 7.2202 33.5474C7.5454 33.6853 7.90338 33.7268 8.2515 33.667L10.1154 33.3466L11.8567 34.0848C12.1819 34.2227 12.5399 34.2642 12.888 34.2044C13.2361 34.1446 13.5597 33.9859 13.8202 33.7474L15.215 32.4702L17.079 32.1498C17.4271 32.09 17.7507 31.9314 18.0112 31.6928C18.2717 31.4543 18.4582 31.1459 18.5484 30.8044L19.0312 28.9758L20.4261 27.6986C20.6866 27.4601 20.8731 27.1517 20.9632 26.8102C21.0534 26.4686 21.0436 26.1084 20.9348 25.7723L20.3524 23.973L20.8353 22.1444C20.9255 21.8029 20.9157 21.4427 20.8069 21.1066C20.6981 20.7705 20.4951 20.4728 20.2219 20.2489L18.7592 19.05L18.1768 17.2507C18.0681 16.9146 17.865 16.6169 17.5918 16.393C17.3186 16.1691 16.9868 16.0284 16.636 15.9877L14.7573 15.77L13.2946 14.5711C13.0214 14.3472 12.6896 14.2065 12.3387 14.1658C11.9879 14.1252 11.6327 14.1862 11.3155 14.3417L9.61734 15.1742L7.73866 14.9564C7.38779 14.9158 7.03262 14.9768 6.71546 15.1323C6.39829 15.2878 6.13251 15.5311 5.94975 15.8334L4.97125 17.4519L3.27307 18.2843C2.95591 18.4398 2.69012 18.6832 2.50736 18.9855C2.32461 19.2878 2.23259 19.6362 2.24227 19.9893L2.29411 21.8798L1.31558 23.4983C1.13283 23.8005 1.04082 24.149 1.0505 24.5021C1.06018 24.8551 1.17115 25.198 1.37018 25.4898L2.43589 27.0522L2.48769 28.9428ZM11.0371 17.7245C12.3163 17.7245 13.5668 18.1039 14.6304 18.8146C15.694 19.5252 16.523 20.5354 17.0125 21.7172C17.5021 22.899 17.6302 24.1995 17.3806 25.4541C17.131 26.7087 16.515 27.8612 15.6105 28.7657C14.706 29.6703 13.5535 30.2863 12.2989 30.5358C11.0443 30.7854 9.74382 30.6573 8.56198 30.1678C7.38015 29.6782 6.37002 28.8492 5.65933 27.7856C4.94864 26.722 4.56931 25.4715 4.56931 24.1923C4.56931 23.343 4.7366 22.5019 5.06164 21.7172C5.38667 20.9325 5.86309 20.2195 6.46368 19.6189C7.06427 19.0183 7.77727 18.5419 8.56198 18.2169C9.34669 17.8918 10.1877 17.7245 11.0371 17.7245Z" fill="white"/>
<path d="M9.5734 26.5258C9.65305 26.6054 9.74762 26.6686 9.85169 26.7117C9.95576 26.7548 10.0673 26.777 10.18 26.777C10.2926 26.777 10.4041 26.7548 10.5082 26.7117C10.6123 26.6686 10.7069 26.6054 10.7865 26.5258L14.2403 23.072C14.4003 22.911 14.49 22.693 14.4896 22.466C14.4893 22.239 14.3989 22.0213 14.2384 21.8608C14.0779 21.7002 13.8602 21.6099 13.6332 21.6095C13.4062 21.6091 13.1882 21.6988 13.0272 21.8588L10.18 24.706L9.04663 23.5726C8.96707 23.4925 8.87248 23.4289 8.76828 23.3854C8.66408 23.3419 8.55232 23.3194 8.43942 23.3193C8.32651 23.3191 8.21468 23.3412 8.11033 23.3843C8.00598 23.4274 7.91117 23.4907 7.83134 23.5705C7.7515 23.6504 7.68821 23.7452 7.64509 23.8495C7.60198 23.9539 7.57988 24.0657 7.58008 24.1786C7.58028 24.2915 7.60276 24.4033 7.64624 24.5075C7.68971 24.6117 7.75333 24.7063 7.83345 24.7858L9.5734 26.5258Z" fill="white"/>
<path d="M36.5364 38.6555C37.3435 38.6835 38.1252 39.1749 38.9528 39.695C39.6638 40.1913 40.4444 40.5798 41.269 40.8479C43.2157 41.3407 45.2606 41.2856 47.1779 40.6887C47.2856 40.6573 47.386 40.605 47.4735 40.5348C47.561 40.4646 47.6338 40.3778 47.6877 40.2795C47.7417 40.1811 47.7757 40.0731 47.7879 39.9616C47.8002 39.8501 47.7903 39.7373 47.7589 39.6296C47.7275 39.5219 47.6752 39.4215 47.605 39.334C47.5348 39.2465 47.448 39.1737 47.3497 39.1197C47.2513 39.0658 47.1433 39.0317 47.0318 39.0195C46.9203 39.0073 46.8075 39.0172 46.6998 39.0486C45.086 39.5569 43.3631 39.6095 41.7213 39.2006C41.0598 38.9723 40.4338 38.6518 39.8618 38.2487C38.9248 37.6598 37.8628 36.9923 36.5959 36.9482C36.0819 36.9308 35.5702 37.0236 35.095 37.2204C34.6199 37.4171 34.1923 37.7133 33.841 38.0889C33.505 38.4444 33.2488 38.8677 33.0897 39.3303C32.9307 39.793 32.8724 40.2843 32.9188 40.7714C32.9397 40.9821 33.0382 41.1775 33.195 41.3198C33.3519 41.462 33.556 41.5409 33.7677 41.5412C33.796 41.5412 33.8245 41.5398 33.8532 41.5369C34.0786 41.5146 34.2859 41.4035 34.4294 41.2283C34.573 41.0531 34.6411 40.8281 34.6187 40.6026C34.5949 40.3579 34.6244 40.1109 34.7053 39.8786C34.7861 39.6464 34.9164 39.4345 35.0871 39.2574C35.2717 39.0595 35.4965 38.9033 35.7465 38.7995C35.9965 38.6956 36.2658 38.6465 36.5364 38.6555Z" fill="white"/>
<path d="M20.7432 30.0114L20.4054 31.2934C20.3669 31.4383 20.3202 31.5808 20.2656 31.7203H33.2843C33.569 31.7203 33.8419 31.6072 34.0432 31.4059C34.2445 31.2047 34.3576 30.9317 34.3576 30.647C34.3576 30.3624 34.2445 30.0894 34.0432 29.8881C33.8419 29.6869 33.569 29.5738 33.2843 29.5738H21.2207L20.7432 30.0114Z" fill="white"/>
<path d="M47.3335 23.0898C47.333 22.8053 47.2197 22.5326 47.0186 22.3315C46.8174 22.1303 46.5448 22.0171 46.2603 22.0165H22.7993C22.7811 22.2251 22.7446 22.4316 22.6903 22.6338L22.3525 23.9174L22.4324 24.163H46.2603C46.5448 24.1625 46.8174 24.0492 47.0186 23.8481C47.2197 23.6469 47.333 23.3743 47.3335 23.0898Z" fill="white"/>
<path d="M46.2598 14.4593H18.1143C18.9941 14.903 19.6654 15.6734 19.9844 16.6058H46.2597C46.5444 16.6058 46.8174 16.4927 47.0186 16.2914C47.2199 16.0902 47.333 15.8172 47.333 15.5325C47.333 15.2479 47.2199 14.9749 47.0186 14.7736C46.8174 14.5724 46.5444 14.4593 46.2597 14.4593H46.2598Z" fill="white"/>
<path d="M52.9295 2.23747H11.0284C10.763 2.23742 10.5003 2.28965 10.2551 2.39118C10.0099 2.49271 9.78716 2.64154 9.59952 2.82918C9.41188 3.01682 9.26305 3.23959 9.16152 3.48476C9.06 3.72993 9.00777 3.9927 9.00782 4.25807V13.1726L9.27805 13.2033L10.4695 12.6183C11.2713 12.2274 12.1856 12.1328 13.0505 12.3512V6.27712H50.9074V49.7244H13.0505V41.2874L11.0376 37.085L9.00781 41.3227V51.7419C9.00776 52.0073 9.05999 52.2701 9.16152 52.5152C9.26305 52.7604 9.41188 52.9832 9.59952 53.1708C9.78716 53.3585 10.0099 53.5073 10.2551 53.6088C10.5003 53.7103 10.763 53.7626 11.0284 53.7625H52.9295C53.1949 53.7626 53.4577 53.7103 53.7028 53.6088C53.948 53.5073 54.1708 53.3585 54.3584 53.1708C54.5461 52.9832 54.6949 52.7604 54.7964 52.5152C54.898 52.2701 54.9502 52.0073 54.9501 51.7419V4.25807C54.9502 3.99271 54.898 3.72993 54.7964 3.48476C54.6949 3.23959 54.5461 3.01682 54.3584 2.82918C54.1708 2.64154 53.948 2.49271 53.7028 2.39118C53.4577 2.28965 53.1949 2.23742 52.9295 2.23747Z" fill="white"/>
</svg>
