<svg width="138" height="138" viewBox="0 0 138 138" fill="none" xmlns="http://www.w3.org/2000/svg">
<path d="M105.472 77.7056C105.472 77.4451 105.342 77.1996 105.122 77.0425C104.902 76.8847 104.615 76.8325 104.349 76.9036L70.5333 85.7598C70.1502 85.8598 69.8851 86.188 69.8851 86.5624V113.771C68.5558 112.327 66.5978 111.408 64.4119 111.408C60.4197 111.408 57.1719 114.464 57.1719 118.222C57.1719 121.978 60.4197 125.034 64.4119 125.034C68.4064 125.034 71.656 121.978 71.656 118.222V93.8879L103.701 85.8926V104.846C102.372 103.401 100.413 102.481 98.2271 102.481C94.2332 102.481 90.9836 105.538 90.9836 109.294C90.9836 113.052 94.2332 116.108 98.2271 116.108C102.212 116.108 105.455 113.065 105.47 109.319C105.47 109.312 105.472 109.304 105.472 109.296V77.7056V77.7056ZM64.4119 123.367C61.3961 123.367 58.9428 121.059 58.9428 118.222C58.9428 115.384 61.3961 113.074 64.4119 113.074C67.4301 113.074 69.8851 115.383 69.8851 118.222C69.8851 121.059 67.4301 123.367 64.4119 123.367ZM71.656 92.164V87.1949L103.701 78.8019V84.1681L71.656 92.164ZM98.2271 114.441C95.2101 114.441 92.7545 112.132 92.7545 109.293C92.7545 106.456 95.2095 104.146 98.2271 104.146C101.245 104.146 103.7 106.455 103.7 109.293C103.7 112.132 101.245 114.441 98.2271 114.441Z" fill="#ED1C24"/>
<path d="M51.3702 60.5104C50.7272 55.4259 50.107 50.8248 49.4412 46.4613C50.1858 45.7188 50.9139 44.9997 51.6605 44.2767C58.7125 37.298 64.8311 31.278 64.8311 25.3926C64.8311 21.0857 61.1185 17.5973 56.5347 17.5973C53.2576 17.5973 50.4161 18.8465 48.2984 21.1831C43.6317 26.33 43.4678 35.6434 44.1087 39.3462C44.4012 40.9442 44.648 42.5812 44.9197 44.2377C44.3804 44.8808 43.8619 45.524 43.3434 46.1671C41.5783 48.3478 39.8153 50.4935 38.1996 52.6196C33.678 58.0939 30.1935 64.0008 29.6543 70.4494C29.592 71.0146 29.5713 71.5992 29.5713 72.1644C29.5713 82.6491 40.2944 89.7038 50.3124 89.7038C50.3331 89.7038 50.582 89.7038 51.0176 89.6649C51.4324 92.82 51.9094 96.1739 52.4072 99.6994C52.7806 102.369 52.4072 104.338 51.2665 105.567C51.2229 105.587 51.1835 105.624 51.1627 105.663C50.2916 106.191 48.8169 106.912 47.9251 106.462C46.888 105.918 46.1434 103.794 46.1621 101.414C46.1828 99.8553 45.5398 98.3936 44.3804 97.2848C43.1795 96.1739 41.6239 95.5503 39.9418 95.5503C36.5195 95.5503 33.7195 98.1812 33.7195 101.397C33.7195 103.657 34.7773 105.901 36.6855 107.674C39.05 109.913 42.4079 111.141 46.1227 111.141C46.1434 111.141 46.1641 111.141 46.1641 111.141C49.7109 111.141 52.5524 110.089 54.3776 108.12C56.348 106.035 57.0532 103.014 56.5139 99.1946C55.9954 95.5113 55.5184 92.0619 55.0828 88.8074C59.314 87.3652 64.8311 83.6625 64.8311 74.1132C64.8311 67.5847 60.2059 60.9976 51.3702 60.5104ZM39.61 104.926C38.5128 103.889 37.8677 102.605 37.8677 101.397C37.8677 100.325 38.8011 99.448 39.9418 99.448C40.5018 99.448 41.0204 99.6604 41.4144 100.033C41.8085 100.405 42.0159 100.871 42.0159 101.377C42.0159 102.332 42.0989 104.729 43.1131 106.834C41.7463 106.464 40.5433 105.801 39.61 104.926ZM54.6867 30.3621C53.5895 32.4279 52.2828 34.4566 50.891 36.4619C51.8265 30.5394 53.6102 28.3938 54.2946 27.7721C54.7302 27.3804 55.0393 27.3044 55.0621 27.2849C55.2487 27.4194 55.6428 28.5497 54.6867 30.3621ZM51.4531 23.6971C52.8013 22.216 54.4606 21.4949 56.5347 21.4949C58.8162 21.4949 60.6829 23.2489 60.6829 25.3926C60.6829 26.6593 60.1644 28.0625 59.2932 29.565C59.6666 27.6357 59.2932 25.8623 58.1297 24.6715C56.9495 23.4633 55.1637 23.093 53.4629 23.6971C52.4051 24.0869 50.6442 25.1587 49.128 28.082C49.6673 26.406 50.3953 24.8664 51.4531 23.6971ZM33.7195 72.1644C33.7195 66.4543 37.1003 60.8028 41.5181 54.9758C42.8663 53.3387 44.2975 51.7407 45.8115 50.1622C46.2886 53.5531 46.7656 57.1 47.2406 60.9216C43.8619 61.896 40.6449 64.3711 38.9649 67.5067C36.9136 71.3478 37.4093 75.4988 40.3566 79.1802L44.9612 84.9506C39.2968 83.1753 33.7195 78.7904 33.7195 72.1644ZM50.1858 85.8062C48.7568 85.7867 47.2012 85.5723 45.6456 85.1436L44.0486 77.6211C44.0486 77.6016 43.3641 74.0937 45.2101 71.9715C45.9381 71.1335 47.0353 70.5859 48.4643 70.3539C49.0679 75.0701 49.7316 80.1546 50.4783 85.7692C50.3725 85.7867 50.2916 85.7867 50.1858 85.8062ZM54.5207 84.6759C53.8383 79.529 53.2161 74.8538 52.6561 70.4904C56.6591 71.4239 58.9614 74.6979 59.1688 77.7985C59.3347 80.291 58.0903 83.0778 54.5207 84.6759ZM50.3124 66.3179C47.3879 66.3179 45.0234 67 43.2604 68.3233C44.901 66.0431 47.8234 64.3691 50.3124 64.3691C55.4561 64.3691 58.5673 67 59.9155 70.2351C57.6547 67.916 54.3569 66.3179 50.3124 66.3179Z" fill="white"/>
</svg>
