<svg width="138" height="138" viewBox="0 0 138 138" fill="none" xmlns="http://www.w3.org/2000/svg">
<g clip-path="url(#clip0_31:844)">
<path d="M70.1582 11.0309H15.9088C14.4115 11.0309 13.1963 12.2704 13.1963 13.8037V96.9862C13.1963 98.5196 14.4115 99.759 15.9088 99.759H70.1582C71.6555 99.759 72.8707 98.5196 72.8707 96.9862V13.8037C72.8707 12.2704 71.6582 11.0309 70.1582 11.0309ZM67.4458 94.2135H18.6212V16.5764H67.4458V94.2135Z" fill="white"/>
<path d="M43.0337 87.4091C53.0292 87.4091 61.1612 78.9855 61.1612 68.632C61.1612 58.2758 53.0292 49.8522 43.0337 49.8522C33.0382 49.8522 24.9062 58.2758 24.9062 68.632C24.9062 78.9855 33.0382 87.4091 43.0337 87.4091ZM43.0337 55.3949C50.0373 55.3949 55.7362 61.3341 55.7362 68.6292C55.7362 75.9244 50.0373 81.8608 43.0337 81.8608C36.0274 81.8608 30.3312 75.9244 30.3312 68.6292C30.3312 61.3341 36.0301 55.3949 43.0337 55.3949Z" fill="white"/>
<path d="M43.0341 72.2755C44.9741 72.2755 46.5468 70.643 46.5468 68.6293C46.5468 66.6156 44.9741 64.9832 43.0341 64.9832C41.0942 64.9832 39.5215 66.6156 39.5215 68.6293C39.5215 70.643 41.0942 72.2755 43.0341 72.2755Z" fill="white"/>
<path d="M42.9692 40.8767C47.3906 40.8767 50.99 37.1612 50.99 32.5945C50.99 28.0278 47.3933 24.3123 42.9692 24.3123C38.5479 24.3123 34.9512 28.0278 34.9512 32.5945C34.9512 37.1612 38.5479 40.8767 42.9692 40.8767ZM42.9692 29.855C44.3987 29.855 45.5651 31.0834 45.5651 32.5918C45.5651 34.1001 44.4014 35.3285 42.9692 35.3285C41.5371 35.3285 40.3761 34.1001 40.3761 32.5918C40.3761 31.0834 41.5398 29.855 42.9692 29.855Z" fill="white"/>
<mask id="path-5-inside-1_31:844" fill="white">
<path d="M110.014 116.654C110.014 112.254 109.147 107.897 107.463 103.831C105.78 99.766 103.312 96.0722 100.2 92.9608C97.0887 89.8494 93.3949 87.3813 89.3296 85.6974C85.2644 84.0135 80.9072 83.1469 76.507 83.1469L76.507 116.654H110.014Z"/>
</mask>
<path d="M110.014 116.654C110.014 112.254 109.147 107.897 107.463 103.831C105.78 99.766 103.312 96.0722 100.2 92.9608C97.0887 89.8494 93.3949 87.3813 89.3296 85.6974C85.2644 84.0135 80.9072 83.1469 76.507 83.1469L76.507 116.654H110.014Z" stroke="#ED1C24" stroke-width="3.19115" mask="url(#path-5-inside-1_31:844)"/>
<mask id="path-6-inside-2_31:844" fill="white">
<path d="M119.588 108.676C119.588 104.276 118.722 99.9187 117.038 95.8534C115.354 91.7881 112.886 88.0943 109.774 84.9829C106.663 81.8715 102.969 79.4034 98.9038 77.7195C94.8386 76.0356 90.4815 75.1689 86.0813 75.1689L86.0813 108.676H119.588Z"/>
</mask>
<path d="M119.588 108.676C119.588 104.276 118.722 99.9187 117.038 95.8534C115.354 91.7881 112.886 88.0943 109.774 84.9829C106.663 81.8715 102.969 79.4034 98.9038 77.7195C94.8386 76.0356 90.4815 75.1689 86.0813 75.1689L86.0813 108.676H119.588Z" stroke="#ED1C24" stroke-width="3.19115" mask="url(#path-6-inside-2_31:844)"/>
<mask id="path-7-inside-3_31:844" fill="white">
<path d="M130.757 97.507C130.757 93.1068 129.891 88.7497 128.207 84.6844C126.523 80.6192 124.055 76.9254 120.943 73.814C117.832 70.7026 114.138 68.2345 110.073 66.5506C106.008 64.8667 101.65 64 97.2502 64L97.2502 97.507H130.757Z"/>
</mask>
<path d="M130.757 97.507C130.757 93.1068 129.891 88.7497 128.207 84.6844C126.523 80.6192 124.055 76.9254 120.943 73.814C117.832 70.7026 114.138 68.2345 110.073 66.5506C106.008 64.8667 101.65 64 97.2502 64L97.2502 97.507H130.757Z" stroke="#ED1C24" stroke-width="3.19115" mask="url(#path-7-inside-3_31:844)"/>
</g>
<defs>
<clipPath id="clip0_31:844">
<rect width="138" height="138" fill="white"/>
</clipPath>
</defs>
</svg>
