<svg width="56" height="56" viewBox="0 0 56 56" fill="none" xmlns="http://www.w3.org/2000/svg">
<path d="M46.7013 42.7963L47.2789 43.6126L46.9912 43.2037C47.2789 43.6126 47.279 43.6126 47.2791 43.6125L47.2794 43.6123L47.2802 43.6117L47.2811 43.611L47.2831 43.6096L47.2935 43.6023L47.2961 43.6004C50.3695 41.4177 53.0104 40.9967 54.4328 41.3266C55.1611 41.4955 55.4361 41.8168 55.4879 42.0526C55.539 42.285 55.4385 42.7332 54.7067 43.3122C53.1604 44.5355 48.2642 47.8365 43.119 50.7028C40.5482 52.135 37.9305 53.4501 35.649 54.3414C34.5081 54.7871 33.462 55.1226 32.5549 55.3153C31.6398 55.5096 30.9058 55.5496 30.3709 55.4401C26.5976 54.6675 22.804 53.6082 19.7869 52.7388C19.3621 52.6164 18.952 52.4975 18.5594 52.3837C17.5618 52.0946 16.6768 51.8381 15.9469 51.6381C15.4379 51.4986 14.9971 51.3844 14.6408 51.3049C14.2984 51.2284 13.9917 51.1737 13.7726 51.1737H13.7652H13.7577H13.7501H13.7424H13.7346H13.7268H13.7189H13.7108H13.7027H13.6946H13.6863H13.678H13.6695H13.661H13.6524H13.6437H13.635H13.6262H13.6172H13.6083H13.5992H13.59H13.5808H13.5715H13.5621H13.5527H13.5431H13.5335H13.5238H13.5141H13.5043H13.4943H13.4844H13.4743H13.4642H13.454H13.4437H13.4334H13.4229H13.4124H13.4019H13.3913H13.3806H13.3698H13.3589H13.348H13.3371H13.326H13.3149H13.3037H13.2925H13.2812H13.2698H13.2584H13.2468H13.2353H13.2236H13.2119H13.2002H13.1883H13.1764H13.1645H13.1525H13.1404H13.1283H13.1161H13.1038H13.0915H13.0791H13.0667H13.0542H13.0416H13.029H13.0163H13.0036H12.9908H12.9779H12.965H12.9521H12.9391H12.926H12.9129H12.8997H12.8865H12.8732H12.8599H12.8465H12.833H12.8196H12.806H12.7924H12.7788H12.7651H12.7513H12.7375H12.7237H12.7098H12.6959H12.6819H12.6678H12.6538H12.6396H12.6254H12.6112H12.597H12.5826H12.5683H12.5539H12.5394H12.525H12.5104H12.4958H12.4812H12.4666H12.4519H12.4371H12.4223H12.4075H12.3927H12.3778H12.3628H12.3478H12.3328H12.3178H12.3027H12.2875H12.2724H12.2572H12.2419H12.2266H12.2113H12.196H12.1806H12.1652H12.1497H12.1342H12.1187H12.1032H12.0876H12.072H12.0563H12.0407H12.025H12.0092H11.9935H11.9777H11.9619H11.946H11.9301H11.9142H11.8983H11.8823H11.8663H11.8503H11.8343H11.8182H11.8021H11.786H11.7699H11.7537H11.7375H11.7213H11.7051H11.6888H11.6725H11.6562H11.6399H11.6236H11.6072H11.5908H11.5744H11.558H11.5416H11.5251H11.5087H11.4922H11.4757H11.4591H11.4426H11.426H11.4095H11.3929H11.3763H11.3597H11.343H11.3264H11.3097H11.293H11.2764H11.2597H11.243H11.2262H11.2095H11.1928H11.176H11.1593H11.1425H11.1257H11.1089H11.0921H11.0753H11.0585H11.0417H11.0249H11.0081H10.9912H10.9744H10.9576H10.9407H10.9239H10.907H10.8901H10.8733H10.8564H10.8395H10.8227H10.8058H10.7889H10.7721H10.7552H10.7383H10.7215H10.7046H10.6877H10.6708H10.654H10.6371H10.6203H10.6034H10.5866H10.5697H10.5529H10.536H10.5192H10.5024H10.4855H10.4687H10.4519H10.4351H10.4183H10.4015H10.3848H10.368H10.3512H10.3345H10.3178H10.301H10.2843H10.2676H10.2509H10.2342H10.2176H10.2009H10.1843H10.1676H10.151H10.1344H10.1178H10.1013H10.0847H10.0682H10.0516H10.0351H10.0187H10.0022H9.98573H9.96929H9.95287H9.93648H9.9201H9.90374H9.8874H9.87109H9.85479H9.83852H9.82226H9.80603H9.78983H9.77364H9.75748H9.74135H9.72523H9.70914H9.69308H9.67704H9.66103H9.64505H9.62909H9.61316H9.59725H9.58138H9.56553H9.54971H9.53392H9.51816H9.50243H9.48672H9.47105H9.45541H9.43981H9.42423H9.40868H9.39317H9.37769H9.36225H9.34684H9.33146H9.31612H9.30081H9.28553H9.2703H9.2551H9.23993H9.2248H9.20971H9.19466H9.17964H9.16467H9.14973H9.13483H9.11997H9.10515H9.09038H9.07564H9.06094H9.04629H9.03168H9.01711H9.00258H8.9881H8.97365H8.95926H8.94491H8.9306H8.91634H8.90212H8.88795H8.87383H8.85975H8.84572H8.83173H8.8178H8.80391H8.79007H8.77629H8.76255H8.74886H8.73522H8.72163H8.70809H8.69461H8.68117H8.66779H8.65446H8.64118H8.62796H8.61479H8.60168H8.58862H8.57561H8.56266H8.54977H8.53693H8.52415H8.51143H8.49876H8.48615H8.4736H8.46111H8.44868H8.4363H8.42399H8.41174H8.39954H8.38741H8.37534H8.36333H8.35138H8.3395H8.32768H8.31592H8.30422H8.29259H8.28103H8.26952H8.25809H8.24672H8.23541H8.22418H8.21301H8.2019H8.19087H8.1799H8.169H8.15817H8.1474H8.13671H8.12609H8.11554H8.10506H8.09465H8.08431H8.07404H8.06385H8.05373H8.04368H8.03371H8.02381H8.01398H8.00423H7.99455H7.98495H7.97543H7.96598H7.95661H7.94731H7.9381H7.92896H7.9199H7.91091H7.90201H7.89319H7.88444H7.87578H7.8672H7.85869H7.85027H7.84194H7.83368H7.8255H7.81741H7.80941H7.80148H7.79364H7.78589H7.77822H7.77063H7.76314H7.75572H7.7484H7.74116H7.73401H7.72694H7.71997H7.71308H7.70628H7.69957H7.69295H7.6889L0.740031 43.8449C5.53074 40.0902 9.52647 37.51 12.8101 35.9498C16.2031 34.3377 18.7734 33.8447 20.6524 34.2014L20.6526 34.2015C22.58 34.5663 24.0915 35.7426 25.7237 37.0128C25.8859 37.139 26.0493 37.2662 26.2145 37.3936C28.0052 38.7751 29.9734 40.1523 32.6745 40.1771C36.0678 40.2081 37.6131 41.081 38.1809 41.929C38.7244 42.7406 38.4833 43.7144 37.8294 44.3357L37.8293 44.3357C37.7106 44.4486 37.4647 44.5876 37.0607 44.7309C36.6695 44.8697 36.1781 44.9961 35.6149 45.1098C34.4893 45.337 33.1224 45.5047 31.7915 45.6269C30.4631 45.7488 29.182 45.8245 28.2322 45.8696C27.7575 45.8922 27.3662 45.9071 27.0939 45.9164C26.9578 45.921 26.8514 45.9243 26.7792 45.9263L26.6972 45.9286L26.6765 45.9291L26.6714 45.9292L26.6702 45.9292L26.6699 45.9293L26.6817 46.4291L26.6699 45.9293L26.5514 46.9118C35.312 49.2761 39.2461 47.9319 40.8842 45.6308C41.6858 44.5046 41.8677 43.2303 41.8598 42.2672C41.8559 41.7825 41.8038 41.3658 41.7526 41.0691C41.7459 41.0303 41.7392 40.9935 41.7326 40.9588C43.8084 39.7291 45.7703 38.7898 47.3047 38.3519C48.1143 38.1208 48.7602 38.0428 49.224 38.1047C49.6668 38.1638 49.8866 38.3368 49.995 38.5876C50.1014 38.8348 50.065 39.1887 49.8041 39.6755C49.5493 40.1509 49.13 40.656 48.6619 41.1295C48.1981 41.5988 47.7075 42.0162 47.3306 42.3176C47.1427 42.4678 46.9845 42.5882 46.8738 42.6705C46.8185 42.7117 46.7751 42.7433 46.746 42.7643L46.7162 42.7857C46.7112 42.7892 46.7063 42.7928 46.7013 42.7963Z" stroke="white"/>
<path d="M7.35757 28.8868H47.938C50.4568 28.8868 52.5026 26.7273 52.5026 24.0727V4.81416C52.5026 2.15769 50.455 0 47.938 0H7.35757C4.83881 0 2.79297 2.15954 2.79297 4.81416V24.0745C2.79297 26.7273 4.84056 28.8868 7.35757 28.8868ZM43.8078 2.2907C43.7903 2.4976 43.7763 2.70635 43.7763 2.91879C43.7763 6.82407 46.6769 10.007 50.3289 10.2232V18.6618C46.6769 18.878 43.7763 22.0591 43.7763 25.9662C43.7763 26.1786 43.7885 26.3874 43.8078 26.5943H31.1509C34.1671 24.5234 36.2725 19.8626 36.2725 14.4425C36.2725 9.02055 34.1671 4.35972 31.1509 2.2907H43.8078ZM24.8786 8.99284C25.1343 8.70281 25.4513 8.46081 25.8297 8.26869C26.208 8.07656 26.6284 7.9491 27.0925 7.88814V6.26432H28.2468V7.88814C28.8704 7.96203 29.4029 8.11166 29.8425 8.33889C30.2822 8.56426 30.706 8.87646 31.1159 9.27364L29.6498 10.5317C29.3941 10.2435 29.1139 10.0126 28.8091 9.83892C28.5043 9.66527 28.14 9.5766 27.7179 9.5766C27.2187 9.5766 26.8351 9.70776 26.5636 9.97009C26.2938 10.2343 26.159 10.5797 26.159 11.0064C26.159 11.4904 26.3429 11.9153 26.7107 12.2811C26.9524 12.5065 27.2257 12.7078 27.5322 12.8833C27.8352 13.057 28.1295 13.2325 28.415 13.4117C28.8459 13.674 29.2417 13.9363 29.6096 14.2005C29.9774 14.4628 30.2927 14.751 30.5554 15.0632C30.8181 15.3754 31.0248 15.7227 31.1737 16.1032C31.3226 16.4856 31.3979 16.9272 31.3979 17.4296C31.3979 18.3274 31.1317 19.0756 30.5974 19.6723C30.0632 20.269 29.282 20.6237 28.2503 20.7327V22.6225H27.096V20.7142C26.3761 20.6292 25.7736 20.4297 25.2884 20.1194C24.805 19.8072 24.3426 19.4118 23.9064 18.9352L25.3935 17.7344C25.5669 17.9063 25.7333 18.0707 25.898 18.2295C26.0609 18.3866 26.2343 18.527 26.4164 18.647C26.6004 18.7671 26.8035 18.8595 27.0242 18.926C27.2449 18.9943 27.4989 19.0276 27.7827 19.0276C28.2749 19.0276 28.6444 18.8835 28.8949 18.5972C29.1454 18.309 29.268 17.9561 29.268 17.5423C29.268 17.1082 29.1401 16.7332 28.8844 16.4191C28.6287 16.1051 28.3081 15.8114 27.928 15.5417C27.5462 15.2719 27.1328 15.0078 26.6862 14.7436C26.2395 14.4794 25.8244 14.1839 25.4391 13.855C25.0555 13.5244 24.7349 13.142 24.4792 12.7078C24.2235 12.2737 24.0939 11.7509 24.0939 11.1395C24.0939 10.7238 24.1622 10.3359 24.297 9.97378C24.4266 9.60986 24.6211 9.28472 24.8786 8.99284ZM4.96667 10.2232C8.6187 10.007 11.5193 6.82407 11.5193 2.91879C11.5193 2.70635 11.507 2.4976 11.4878 2.2907H24.1464C21.1284 4.36157 19.0248 9.0224 19.0248 14.4425C19.0248 19.8626 21.1284 24.5234 24.1464 26.5943H11.4878C11.507 26.3874 11.5193 26.1768 11.5193 25.9662C11.5193 22.0591 8.6187 18.878 4.96667 18.6618V10.2232Z" fill="white"/>
</svg>
