<svg width="132" height="132" viewBox="0 0 132 132" fill="none" xmlns="http://www.w3.org/2000/svg">
<path d="M61.8447 28.6563C61.4322 26.0313 59.9885 23.8438 57.7197 22.3125C54.0072 19.6875 50.9135 15.9688 48.851 11.8125L48.026 10.0625C47.6135 9.18752 46.5822 8.75002 45.7572 8.96877C44.9322 8.96877 44.3135 9.84377 44.3135 10.9375V45.5C42.6635 44.4063 40.3947 43.75 38.126 43.75C32.351 43.75 27.8135 47.6875 27.8135 52.5C27.8135 57.3125 32.351 61.25 38.126 61.25C43.901 61.25 48.4385 57.3125 48.4385 52.5V18.8125C50.501 21.4375 52.7697 23.8438 55.451 25.8125C56.6885 26.6875 57.5135 28 57.7197 29.5313C57.926 31.0625 57.7197 32.5938 56.8947 33.9063C56.276 35 56.4822 36.3125 57.5135 36.9688C58.5447 37.625 59.7822 37.4063 60.401 36.3125C61.8447 33.9063 62.4635 31.2813 61.8447 28.6563Z" fill="white"/>
<path d="M21.626 54.6875H7.18848C5.95098 54.6875 5.12598 55.5625 5.12598 56.875C5.12598 58.1875 5.95098 59.0625 7.18848 59.0625H21.626C22.8635 59.0625 23.6885 58.1875 23.6885 56.875C23.6885 55.5625 22.8635 54.6875 21.626 54.6875Z" fill="white"/>
<path d="M21.626 43.75H7.18848C5.95098 43.75 5.12598 44.625 5.12598 45.9375C5.12598 47.25 5.95098 48.125 7.18848 48.125H21.626C22.8635 48.125 23.6885 47.25 23.6885 45.9375C23.6885 44.625 22.8635 43.75 21.626 43.75Z" fill="white"/>
<path d="M7.18848 37.1875H36.0635C37.301 37.1875 38.126 36.3125 38.126 35C38.126 33.6875 37.301 32.8125 36.0635 32.8125H7.18848C5.95098 32.8125 5.12598 33.6875 5.12598 35C5.12598 36.3125 5.95098 37.1875 7.18848 37.1875Z" fill="white"/>
<path d="M7.18848 26.25H36.0635C37.301 26.25 38.126 25.375 38.126 24.0625C38.126 22.75 37.301 21.875 36.0635 21.875H7.18848C5.95098 21.875 5.12598 22.75 5.12598 24.0625C5.12598 25.375 5.95098 26.25 7.18848 26.25Z" fill="white"/>
<path d="M7.18848 15.3125H36.0635C37.301 15.3125 38.126 14.4375 38.126 13.125C38.126 11.8125 37.301 10.9375 36.0635 10.9375H7.18848C5.95098 10.9375 5.12598 11.8125 5.12598 13.125C5.12598 14.4375 5.95098 15.3125 7.18848 15.3125Z" fill="white"/>
<g clip-path="url(#clip0_23:137)">
<path fill-rule="evenodd" clip-rule="evenodd" d="M129.672 74.1905H118.897H80.1034H69.3276C68.7328 74.1905 68.25 74.6532 68.25 75.2257V86.6129V98V109.387V120.774C68.25 121.347 68.7328 121.81 69.3276 121.81H80.1034H118.897H129.672C130.267 121.81 130.75 121.347 130.75 120.774V109.387V98V86.6129V75.2257C130.75 74.6532 130.267 74.1905 129.672 74.1905Z" stroke="white" stroke-width="3.5" stroke-linecap="round" stroke-linejoin="round"/>
<path fill-rule="evenodd" clip-rule="evenodd" d="M107.76 98.5953L94.5 107.524V89.6667L107.76 98.5953Z" stroke="white" stroke-width="3.5" stroke-linecap="round" stroke-linejoin="round"/>
<path d="M130.75 74.1905H118.25V86.0953H130.75V74.1905Z" stroke="white" stroke-width="3.5" stroke-linecap="round" stroke-linejoin="round"/>
<path d="M80.75 74.1905H68.25V86.0953H80.75V74.1905Z" stroke="white" stroke-width="3.5" stroke-linecap="round" stroke-linejoin="round"/>
<path d="M130.75 86.0953H118.25V98H130.75V86.0953Z" stroke="white" stroke-width="3.5" stroke-linecap="round" stroke-linejoin="round"/>
<path d="M80.75 86.0953H68.25V98H80.75V86.0953Z" stroke="white" stroke-width="3.5" stroke-linecap="round" stroke-linejoin="round"/>
<path d="M130.75 98H118.25V109.905H130.75V98Z" stroke="white" stroke-width="3.5" stroke-linecap="round" stroke-linejoin="round"/>
<path d="M80.75 98H68.25V109.905H80.75V98Z" stroke="white" stroke-width="3.5" stroke-linecap="round" stroke-linejoin="round"/>
<path d="M130.75 109.905H118.25V121.81H130.75V109.905Z" stroke="white" stroke-width="3.5" stroke-linecap="round" stroke-linejoin="round"/>
<path d="M80.75 109.905H68.25V121.81H80.75V109.905Z" stroke="white" stroke-width="3.5" stroke-linecap="round" stroke-linejoin="round"/>
</g>
<path d="M92.6472 31.3644L92.6453 29.7873H92.6453L92.6472 31.3644ZM71.9954 30.2492C71.4421 30.8651 71.4433 31.8636 71.9981 32.4795L81.0392 42.516C81.594 43.1319 82.4923 43.1319 83.0456 42.516C83.5989 41.9001 83.5976 40.9016 83.0428 40.2857L75.0064 31.3644L83.021 22.443C83.5743 21.8271 83.5731 20.8286 83.0183 20.2127C82.4635 19.5968 81.5652 19.5968 81.0119 20.2127L71.9954 30.2492ZM92.6453 29.7873L72.998 29.7873L73.0019 32.9414L92.6491 32.9414L92.6453 29.7873ZM118.851 58.9186C118.852 42.8363 107.113 29.7873 92.6453 29.7873L92.6491 32.9414C105.548 32.9414 116.014 44.5757 116.014 58.9143L118.851 58.9186Z" fill="#ED1C24"/>
<path d="M37.0966 107.322L37.1058 105.745L37.1058 105.745L37.0966 107.322ZM57.7406 108.586C58.2982 107.974 58.304 106.975 57.7535 106.355L48.7833 96.2542C48.2328 95.6344 47.3345 95.6279 46.7769 96.2398C46.2193 96.8517 46.2135 97.8503 46.764 98.4701L54.7375 107.449L46.6604 116.313C46.1028 116.924 46.097 117.923 46.6475 118.543C47.1979 119.163 48.0962 119.169 48.6538 118.557L57.7406 108.586ZM37.0875 108.899L56.7347 109.04L56.753 105.886L37.1058 105.745L37.0875 108.899ZM11.0534 79.5829C10.9598 95.6701 22.6157 108.796 37.0875 108.899L37.1058 105.745C24.2011 105.653 13.8073 93.9485 13.8908 79.6033L11.0534 79.5829Z" fill="#ED1C24"/>
<defs>
<clipPath id="clip0_23:137">
<rect width="65" height="50" fill="white" transform="translate(67 73)"/>
</clipPath>
</defs>
</svg>
