<svg width="138" height="138" viewBox="0 0 138 138" fill="none" xmlns="http://www.w3.org/2000/svg">
<g clip-path="url(#clip0_31:847)">
<path d="M162.546 58.1871C126.352 42.8827 89.648 42.8832 53.4544 58.1871L50.2891 59.5254L55.4832 121.022C56.595 134.186 62.6095 146.451 72.3356 155.391C82.0617 164.33 94.7901 169.291 108 169.291C121.21 169.291 133.939 164.33 143.665 155.391C153.391 146.451 159.405 134.186 160.517 121.022L165.711 59.5254L162.546 58.1871ZM155.687 121.022C154.775 131.819 146.977 146.168 139 153.5C131.023 160.832 118.835 165 108 165C97.1652 165 84.4773 160.832 76.5 153.5C68.5227 146.168 61.2257 131.819 60.3139 121.022L58.5 65.6178C90.1595 53.0803 128.859 53.0803 160.517 65.6178L155.687 121.022Z" fill="black"/>
<path d="M80.877 123.38L81.4348 128.76C82.5904 139.925 94.2606 148.674 108 148.674C114.464 148.731 120.775 146.708 126.001 142.904C130.78 139.32 133.989 134.343 134.566 128.76L135.123 123.38C126.575 127.138 117.338 129.078 108 129.078C98.662 129.078 89.4256 127.138 80.877 123.38H80.877Z" fill="#727E8B" fill-opacity="0.31"/>
<path d="M92.5717 96.7834C93.2868 97.0332 93.9831 97.3089 94.6608 97.6104C94.678 97.606 94.6953 97.6017 94.7168 97.5974C95.1757 97.4695 95.5713 97.1769 95.828 96.7756C96.0846 96.3743 96.1844 95.8924 96.1081 95.4222C94.1482 83.2365 88.316 75.7976 78.7751 73.3036C78.2778 73.1741 77.7495 73.2472 77.3061 73.507C76.8627 73.7667 76.5405 74.1919 76.4104 74.689C76.2803 75.1862 76.3528 75.7146 76.612 76.1583C76.8713 76.602 77.2961 76.9247 77.793 77.0554C83.9009 78.6491 88.1007 82.6205 90.5214 89.1204C88.3675 87.6579 85.8195 86.8857 83.2161 86.9064C77.3881 86.9064 72.4389 90.6151 71.9479 95.3533L71.7109 97.6363C78.309 94.7348 85.7589 94.4302 92.5718 96.7834L92.5717 96.7834Z" fill="#727E8B" fill-opacity="0.31"/>
<path d="M121.283 97.5974C121.305 97.6018 121.322 97.6061 121.339 97.6104C122.016 97.3088 122.712 97.0332 123.429 96.7834C130.241 94.4302 137.691 94.7348 144.289 97.6363L144.052 95.3533C143.561 90.6151 138.612 86.9064 132.784 86.9064C130.181 86.8857 127.633 87.6579 125.479 89.1204C127.9 82.6205 132.099 78.6491 138.207 77.0554C138.704 76.9247 139.129 76.602 139.388 76.1583C139.648 75.7146 139.72 75.1862 139.59 74.689C139.46 74.1919 139.138 73.7667 138.694 73.507C138.251 73.2472 137.722 73.1741 137.225 73.3036C127.684 75.7976 121.852 83.2365 119.892 95.4222C119.816 95.8924 119.916 96.3743 120.172 96.7756C120.429 97.1769 120.825 97.4695 121.283 97.5974V97.5974Z" fill="#727E8B" fill-opacity="0.31"/>
<path d="M104.276 108.656L99.012 113.921C98.832 114.101 98.6893 114.314 98.5919 114.549C98.4945 114.784 98.4443 115.036 98.4443 115.291C98.4443 115.546 98.4945 115.798 98.5919 116.033C98.6893 116.268 98.832 116.481 99.012 116.661C99.192 116.841 99.4056 116.984 99.6408 117.082C99.8759 117.179 100.128 117.229 100.382 117.229C100.637 117.229 100.889 117.179 101.124 117.082C101.359 116.984 101.573 116.841 101.753 116.661L107.018 111.397C107.282 111.144 107.634 111.003 108 111.003C108.366 111.003 108.718 111.144 108.982 111.397L114.247 116.661C114.427 116.841 114.64 116.984 114.875 117.082C115.11 117.179 115.362 117.229 115.617 117.229C115.872 117.229 116.124 117.179 116.359 117.082C116.594 116.984 116.807 116.841 116.987 116.661C117.167 116.481 117.31 116.268 117.408 116.033C117.505 115.798 117.555 115.546 117.555 115.291C117.555 115.036 117.505 114.784 117.408 114.549C117.31 114.314 117.167 114.101 116.987 113.921L111.723 108.656C111.235 108.167 110.654 107.779 110.015 107.515C109.376 107.25 108.691 107.114 108 107.114C107.308 107.114 106.624 107.25 105.985 107.515C105.346 107.779 104.765 108.167 104.276 108.656L104.276 108.656Z" fill="#727E8B" fill-opacity="0.31"/>
<path d="M125.546 19.1871C89.3515 3.88274 52.648 3.88316 16.4544 19.1871L13.2891 20.5254L18.4832 82.0224C19.595 95.1856 25.6095 107.451 35.3356 116.391C45.0617 125.33 57.7901 130.291 71.0002 130.291C84.2103 130.291 96.9387 125.33 106.665 116.391C116.391 107.451 122.405 95.1856 123.517 82.0224L128.711 20.5254L125.546 19.1871ZM114.075 81.2248C113.163 92.0213 108.23 102.082 100.252 109.414C92.2751 116.746 81.8352 120.815 71.0002 120.815C60.1653 120.815 49.7254 116.746 41.748 109.414C33.7707 102.082 28.8377 92.0213 27.9259 81.2248L23.3139 26.6178C54.9734 14.0803 87.0287 14.0803 118.687 26.6178L114.075 81.2248Z" fill="white"/>
<path d="M43.877 84.3796L44.4348 89.7596C45.5904 100.925 57.2606 109.674 71.0002 109.674C77.4639 109.731 83.7746 107.708 89.0009 103.904C93.78 100.32 96.989 95.3433 97.5655 89.7596L98.1234 84.3796C89.5747 88.1376 80.3384 90.0782 71.0002 90.0782C61.662 90.0782 52.4256 88.1376 43.877 84.3796H43.877Z" fill="#ED1C24"/>
<path d="M55.5717 57.7834C56.2868 58.0332 56.9831 58.3089 57.6608 58.6104C57.678 58.606 57.6953 58.6017 57.7168 58.5974C58.1757 58.4695 58.5713 58.1769 58.828 57.7756C59.0846 57.3743 59.1844 56.8924 59.1081 56.4222C57.1482 44.2365 51.316 36.7976 41.7751 34.3036C41.2778 34.1741 40.7495 34.2472 40.3061 34.507C39.8627 34.7667 39.5405 35.1919 39.4104 35.689C39.2803 36.1862 39.3528 36.7146 39.612 37.1583C39.8713 37.602 40.2961 37.9247 40.793 38.0554C46.9009 39.6491 51.1007 43.6205 53.5214 50.1204C51.3675 48.6579 48.8195 47.8857 46.2161 47.9064C40.3881 47.9064 35.4389 51.6151 34.9479 56.3533L34.7109 58.6363C41.309 55.7348 48.7589 55.4302 55.5718 57.7834L55.5717 57.7834Z" fill="#ED1C24"/>
<path d="M84.2834 58.5974C84.305 58.6018 84.3222 58.6061 84.3394 58.6104C85.0157 58.3088 85.7121 58.0332 86.4285 57.7834C93.2414 55.4302 100.691 55.7348 107.289 58.6363L107.052 56.3533C106.561 51.6151 101.612 47.9064 95.7842 47.9064C93.1808 47.8857 90.6328 48.6579 88.4788 50.1204C90.8996 43.6205 95.0993 39.6491 101.207 38.0554C101.704 37.9247 102.129 37.602 102.388 37.1583C102.648 36.7146 102.72 36.1862 102.59 35.689C102.46 35.1919 102.138 34.7667 101.694 34.507C101.251 34.2472 100.722 34.1741 100.225 34.3036C90.6842 36.7976 84.852 44.2365 82.8922 56.4222C82.8159 56.8924 82.9156 57.3743 83.1723 57.7756C83.429 58.1769 83.8246 58.4695 84.2834 58.5974V58.5974Z" fill="#ED1C24"/>
<path d="M67.2764 69.6562L62.012 74.9205C61.832 75.1005 61.6893 75.3142 61.5919 75.5493C61.4945 75.7844 61.4443 76.0365 61.4443 76.291C61.4443 76.5455 61.4945 76.7975 61.5919 77.0327C61.6893 77.2678 61.832 77.4815 62.012 77.6615C62.192 77.8414 62.4056 77.9842 62.6408 78.0816C62.8759 78.179 63.1279 78.2291 63.3825 78.2291C63.637 78.2291 63.889 78.179 64.1242 78.0816C64.3593 77.9842 64.573 77.8414 64.7529 77.6615L70.0177 72.3971C70.2823 72.1444 70.6341 72.0034 70.9999 72.0034C71.3658 72.0034 71.7176 72.1444 71.9822 72.3971L77.2465 77.6615C77.4265 77.8414 77.6402 77.9842 77.8753 78.0816C78.1104 78.179 78.3625 78.2291 78.617 78.2291C78.8715 78.2291 79.1235 78.179 79.3587 78.0816C79.5938 77.9842 79.8075 77.8414 79.9875 77.6615C80.1674 77.4815 80.3102 77.2678 80.4076 77.0327C80.505 76.7975 80.5551 76.5455 80.5551 76.291C80.5551 76.0365 80.505 75.7845 80.4076 75.5493C80.3102 75.3142 80.1674 75.1005 79.9875 74.9205L74.7235 69.6562C74.2345 69.1671 73.654 68.7792 73.0151 68.5145C72.3762 68.2499 71.6914 68.1136 70.9999 68.1136C70.3084 68.1136 69.6236 68.2499 68.9847 68.5145C68.3458 68.7792 67.7653 69.1671 67.2763 69.6562L67.2764 69.6562Z" fill="#ED1C24"/>
</g>
<defs>
<clipPath id="clip0_31:847">
<rect width="138" height="138" fill="white"/>
</clipPath>
</defs>
</svg>
