<svg width="176" height="176" viewBox="0 0 176 176" fill="none" xmlns="http://www.w3.org/2000/svg">
<circle cx="88" cy="88" r="88" fill="#ED1C24"/>
<g clip-path="url(#clip0_63:54)">
<path fill-rule="evenodd" clip-rule="evenodd" d="M88.44 28C122.37 28 149.88 55.51 149.88 89.44C149.88 123.37 122.37 150.88 88.44 150.88C54.51 150.88 27 123.37 27 89.44C27 55.51 54.51 28 88.44 28ZM88.44 84.65C91.09 84.65 93.23 86.8 93.23 89.44C93.23 92.08 91.09 94.23 88.44 94.23C85.8 94.23 83.65 92.09 83.65 89.44C83.65 86.8 85.8 84.65 88.44 84.65ZM88.44 69.99C99.18 69.99 107.89 78.7 107.89 89.44C107.89 100.18 99.18 108.89 88.44 108.89C77.7 108.89 69 100.18 69 89.44C69 78.7 77.7 69.99 88.44 69.99ZM40.59 77.95C43.8 69.36 48.89 61.7 55.36 55.47C61.82 49.25 69.66 44.44 78.36 41.56L79.92 46.28C71.92 48.93 64.73 53.34 58.8 59.05C52.85 64.78 48.18 71.81 45.24 79.68L40.59 77.95ZM56.12 81.58C58.13 76.19 61.33 71.37 65.39 67.46C69.45 63.55 74.37 60.53 79.84 58.73L81.39 63.45C76.63 65.03 72.36 67.65 68.83 71.04C65.29 74.45 62.51 78.63 60.76 83.31L56.12 81.58ZM121.28 96.54C119.27 101.93 116.07 106.75 112.01 110.66C107.95 114.57 103.03 117.59 97.56 119.39L96.01 114.67C100.77 113.09 105.05 110.48 108.57 107.08C112.11 103.67 114.89 99.49 116.64 94.81L121.28 96.54ZM136.81 100.17C133.6 108.75 128.51 116.41 122.04 122.65C115.58 128.88 107.74 133.68 99.04 136.56L97.48 131.84C105.48 129.19 112.67 124.78 118.6 119.07C124.55 113.34 129.22 106.31 132.16 98.44L136.81 100.17Z" fill="white"/>
</g>
<defs>
<clipPath id="clip0_63:54">
<rect width="122.88" height="122.88" fill="white" transform="translate(27 28)"/>
</clipPath>
</defs>
</svg>
