<svg width="181" height="181" viewBox="0 0 181 181" fill="none" xmlns="http://www.w3.org/2000/svg">
<mask id="path-1-inside-1_67:88" fill="white">
<path d="M7.91176e-06 90.5C6.34696e-06 108.399 5.30774 125.896 15.252 140.779C25.1963 155.662 39.3304 167.261 55.8672 174.111C72.4039 180.961 90.6004 182.753 108.156 179.261C125.711 175.769 141.837 167.15 154.493 154.493C167.15 141.837 175.769 125.711 179.261 108.156C182.753 90.6004 180.961 72.4039 174.111 55.8671C167.261 39.3304 155.662 25.1963 140.779 15.252C125.896 5.30773 108.399 -6.56041e-06 90.5 -7.91176e-06L90.5 90.5L7.91176e-06 90.5Z"/>
</mask>
<path d="M7.91176e-06 90.5C6.34696e-06 108.399 5.30774 125.896 15.252 140.779C25.1963 155.662 39.3304 167.261 55.8672 174.111C72.4039 180.961 90.6004 182.753 108.156 179.261C125.711 175.769 141.837 167.15 154.493 154.493C167.15 141.837 175.769 125.711 179.261 108.156C182.753 90.6004 180.961 72.4039 174.111 55.8671C167.261 39.3304 155.662 25.1963 140.779 15.252C125.896 5.30773 108.399 -6.56041e-06 90.5 -7.91176e-06L90.5 90.5L7.91176e-06 90.5Z" stroke="black" stroke-width="2" mask="url(#path-1-inside-1_67:88)"/>
<g clip-path="url(#clip0_67:88)">
<path fill-rule="evenodd" clip-rule="evenodd" d="M91.44 30C125.37 30 152.88 57.51 152.88 91.44C152.88 125.37 125.37 152.88 91.44 152.88C57.51 152.88 30 125.37 30 91.44C30 57.51 57.51 30 91.44 30ZM91.44 86.65C94.09 86.65 96.23 88.8 96.23 91.44C96.23 94.08 94.09 96.23 91.44 96.23C88.8 96.23 86.65 94.09 86.65 91.44C86.65 88.8 88.8 86.65 91.44 86.65ZM91.44 71.99C102.18 71.99 110.89 80.7 110.89 91.44C110.89 102.18 102.18 110.89 91.44 110.89C80.7 110.89 72 102.18 72 91.44C72 80.7 80.7 71.99 91.44 71.99ZM43.59 79.95C46.8 71.36 51.89 63.7 58.36 57.47C64.82 51.25 72.66 46.44 81.36 43.56L82.92 48.28C74.92 50.93 67.73 55.34 61.8 61.05C55.85 66.78 51.18 73.81 48.24 81.68L43.59 79.95ZM59.12 83.58C61.13 78.19 64.33 73.37 68.39 69.46C72.45 65.55 77.37 62.53 82.84 60.73L84.39 65.45C79.63 67.03 75.36 69.65 71.83 73.04C68.29 76.45 65.51 80.63 63.76 85.31L59.12 83.58ZM124.28 98.54C122.27 103.93 119.07 108.75 115.01 112.66C110.95 116.57 106.03 119.59 100.56 121.39L99.01 116.67C103.77 115.09 108.05 112.48 111.57 109.08C115.11 105.67 117.89 101.49 119.64 96.81L124.28 98.54ZM139.81 102.17C136.6 110.75 131.51 118.41 125.04 124.65C118.58 130.88 110.74 135.68 102.04 138.56L100.48 133.84C108.48 131.19 115.67 126.78 121.6 121.07C127.55 115.34 132.22 108.31 135.16 100.44L139.81 102.17Z" fill="white"/>
</g>
<defs>
<clipPath id="clip0_67:88">
<rect width="122.88" height="122.88" fill="white" transform="translate(30 30)"/>
</clipPath>
</defs>
</svg>
